<svg width="40" height="40" viewBox="0 0 40 40" fill="none" xmlns="http://www.w3.org/2000/svg">
<g id="icon_shouye_yanchanghui">
<g id="Group">
<path id="&#229;&#189;&#162;&#231;&#138;&#182;&#231;&#187;&#147;&#229;&#144;&#136;" fill-rule="evenodd" clip-rule="evenodd" d="M18.9556 21.5749C22.6005 17.93 22.5213 11.9414 18.7788 8.19884C16.9951 6.41511 14.7011 5.46355 12.3939 5.35071C11.4117 5.79292 10.4941 6.4155 9.69057 7.21909C6.04567 10.864 6.12476 16.8527 9.8673 20.5952C11.651 22.3789 13.9449 23.3305 16.2522 23.4433C17.2345 23.0011 18.1519 22.3786 18.9556 21.5749Z" fill="#69EED5"/>
<path id="&#229;&#189;&#162;&#231;&#138;&#182;&#231;&#187;&#147;&#229;&#144;&#136;_2" fill-rule="evenodd" clip-rule="evenodd" d="M20.2527 18.358L29.3632 28.5758C29.9428 29.2259 29.973 30.1825 29.4706 30.8637C28.7894 31.3662 27.8328 31.3359 27.1827 30.7564L16.9648 21.6458L20.2527 18.358Z" fill="#69EED5"/>
<path id="&#231;&#155;&#180;&#231;&#186;&#191; 5" d="M30.2391 32.0437L30.8904 32.6951C32.0751 33.8797 33.9959 33.8797 35.1805 32.6951C36.3297 31.5459 36.3691 29.6951 35.2698 28.4981L28.0042 20.5869C26.5223 18.9734 26.5753 16.4786 28.1245 14.9294C29.7214 13.3325 32.3106 13.3325 33.9075 14.9294L36.5773 17.5993L35.2917 18.8849L32.6219 16.2151C31.735 15.3282 30.2971 15.3282 29.4102 16.2151C28.5498 17.0754 28.5203 18.4609 29.3433 19.3571L36.6089 27.2683C38.3672 29.1827 38.3042 32.1427 36.4662 33.9807C34.5714 35.8755 31.4995 35.8755 29.6048 33.9807L28.9534 33.3294L30.2391 32.0437Z" fill="black"/>
<path id="&#232;&#183;&#175;&#229;&#190;&#132;" d="M20.9314 17.7532L30.0419 27.971C31.004 29.0501 30.957 30.6923 29.9347 31.7145L28.6244 33.0249C27.6022 34.0471 25.9599 34.0941 24.8809 33.132L14.6631 24.0214L15.8731 22.6644L26.0909 31.7749C26.4506 32.0956 26.998 32.08 27.3387 31.7392L28.6491 30.4289C28.9898 30.0882 29.0055 29.5407 28.6848 29.1811L19.5743 18.9632L20.9314 17.7532Z" fill="black"/>
<path id="&#231;&#155;&#180;&#231;&#186;&#191; 4" d="M20.8477 22.6517L24.1616 25.9659L22.8758 27.2515L19.562 23.9374L20.8477 22.6517Z" fill="black"/>
<path id="&#230;&#164;&#173;&#229;&#156;&#134;&#229;&#189;&#162;&#229;&#164;&#135;&#228;&#187;&#189;" fill-rule="evenodd" clip-rule="evenodd" d="M19.04 22.1302C22.8254 18.3448 22.7432 12.1254 18.8565 8.23856C14.9696 4.35184 8.75018 4.26965 4.96482 8.05502C1.17946 11.8404 1.26165 18.0598 5.14846 21.9467C9.03518 25.8334 15.2546 25.9156 19.04 22.1302ZM11.8485 7.08778C14.0684 7.11712 15.9759 7.92929 17.5708 9.52429C19.1658 11.1193 19.9779 13.0267 20.0073 15.2465C20.0364 17.4475 19.2854 19.3135 17.7544 20.8446C16.2233 22.3756 14.3573 23.1266 12.1563 23.0975C9.93646 23.0681 8.02906 22.256 6.43409 20.661C4.8391 19.066 4.02693 17.1586 3.99759 14.9387C3.9685 12.7377 4.71946 10.8717 6.25046 9.34065C7.78149 7.80965 9.64752 7.05869 11.8485 7.08778Z" fill="black"/>
<path id="&#232;&#183;&#175;&#229;&#190;&#132;_2" d="M4.40896 20.598C7.53675 20.9287 10.5621 19.6434 13.4849 16.7421C16.427 13.8217 17.7674 10.733 17.5061 7.47579L19.3185 7.33041C19.6248 11.1484 18.1072 14.7158 14.7658 18.0325C11.4343 21.3395 7.91823 22.7974 4.21777 22.4061L4.40896 20.598Z" fill="black"/>
</g>
</g>
</svg>
