<svg width="40" height="40" viewBox="0 0 40 40" fill="none" xmlns="http://www.w3.org/2000/svg">
<g id="icon_shouye_huaju">
<g id="Group">
<path id="&#232;&#183;&#175;&#229;&#190;&#132;" fill-rule="evenodd" clip-rule="evenodd" d="M8.92846 10.8986L6.09277 13.7344L25.5892 33.2309L28.425 30.3951C28.3392 30.3264 28.2563 30.2523 28.1768 30.1728C27.0075 29.0035 27.0075 27.1078 28.1768 25.9385C29.346 24.7692 31.2418 24.7692 32.411 25.9385C32.4906 26.018 32.5648 26.1009 32.6335 26.1868L35.4691 23.3509L20.1201 8.00188L17.7453 10.5591L13.7077 6.11951L13.1369 6.69016C13.2227 6.75888 13.3056 6.83301 13.3851 6.91255C14.5544 8.08182 14.5544 9.97756 13.3851 11.1468C12.2159 12.3161 10.3201 12.3161 9.15085 11.1468C9.07131 11.0673 8.99718 10.9844 8.92846 10.8986Z" fill="#51FE81"/>
<path id="&#232;&#183;&#175;&#229;&#190;&#132;_2" fill-rule="evenodd" clip-rule="evenodd" d="M17.9929 10.7811C17.9135 10.7017 17.8308 10.6277 17.7451 10.5591L20.5806 7.72302L38.5076 25.6501L35.6721 28.4862C35.6033 28.4003 35.5291 28.3173 35.4496 28.2378C34.2803 27.0685 32.3845 27.0685 31.2153 28.2378C30.046 29.4069 30.046 31.3028 31.2153 32.472C31.2948 32.5516 31.3778 32.6258 31.4638 32.6946L28.6277 35.53L23.7001 30.6026" fill="#51FE80"/>
<path id="&#232;&#183;&#175;&#229;&#190;&#132;_3" d="M17.3502 11.424C17.295 11.3688 17.2372 11.317 17.1768 11.2686L16.3848 10.634L20.5806 6.43735L39.7933 25.6501L35.5972 29.8471L34.9626 29.0544C34.9141 28.9939 34.8622 28.9359 34.8068 28.8806C33.9926 28.0663 32.6724 28.0663 31.8582 28.8806C31.0439 29.6948 31.0439 31.015 31.8582 31.8292C31.9136 31.8846 31.9715 31.9365 32.032 31.985L32.8247 32.6196L28.6277 36.8157L23.0574 31.2454L24.343 29.9598L29.2706 34.8872L28.6278 35.5301L27.9849 34.8872L30.821 32.0517L31.4639 32.6946L30.8956 33.4042C30.7829 33.3139 30.6752 33.2175 30.5725 33.1149C29.0482 31.5906 29.0482 29.1192 30.5725 27.5949C32.0969 26.0706 34.5682 26.0706 36.0925 27.5949C36.1951 27.6975 36.2916 27.8052 36.3819 27.918L35.6722 28.4862L35.0293 27.8434L37.8649 25.0073L38.5077 25.6502L37.8649 26.293L19.9379 8.36588L20.5807 7.72306L21.2235 8.36581L18.3881 11.2019L17.7452 10.5591L18.3136 9.84961C18.4261 9.9397 18.5335 10.0359 18.6359 10.1383L17.3502 11.424Z" fill="black"/>
<path id="&#232;&#183;&#175;&#229;&#190;&#132;_4" d="M5.55134 11.3526C6.36558 12.1668 7.68572 12.1668 8.49996 11.3526C9.3142 10.5384 9.3142 9.21821 8.49996 8.40397C8.44451 8.34852 8.38645 8.29651 8.32578 8.24795L7.53276 7.61325L11.7306 3.41757L32.5124 24.1994L28.3161 28.396L27.6816 27.6036C27.6331 27.5431 27.5812 27.4852 27.5259 27.43C26.7117 26.6157 25.3915 26.6157 24.5773 27.43C23.763 28.2441 23.763 29.5643 24.5773 30.3785C24.6326 30.4338 24.6905 30.4857 24.751 30.5341L25.5434 31.1688L21.3468 35.365L0.564941 14.5832L4.76062 10.3854L5.39532 11.1784C5.44388 11.2391 5.49589 11.2971 5.55134 11.3526L4.26569 12.6382C4.16286 12.5354 4.06623 12.4275 3.97581 12.3145L4.68556 11.7465L5.32855 12.3891L2.49341 15.2257L1.85043 14.583L2.49325 13.9402L21.9897 33.4366L21.3468 34.0794L20.704 33.4366L23.5399 30.601L24.1827 31.2438L23.6144 31.9533C23.5018 31.8631 23.3942 31.7668 23.2917 31.6642C21.7673 30.1399 21.7673 27.6685 23.2917 26.1442C24.8159 24.62 27.2873 24.62 28.8116 26.1442C28.9141 26.2468 29.0105 26.3544 29.1007 26.467L28.3911 27.0353L27.7483 26.3925L30.5839 23.5567L31.2268 24.1995L30.5839 24.8423L11.0876 5.34588L11.7304 4.70306L12.373 5.34604L9.5365 8.18118L8.89383 7.5382L9.46189 6.82843C9.57487 6.91886 9.68278 7.01549 9.78561 7.11832C11.3099 8.64261 11.3099 11.114 9.78561 12.6382C8.26132 14.1625 5.78998 14.1625 4.26569 12.6382L5.55134 11.3526Z" fill="black"/>
<path id="&#231;&#155;&#180;&#231;&#186;&#191; 7" d="M6.45801 17.9288L7.23177 17.155L8.51744 18.4406L7.74366 19.2144L6.45801 17.9288ZM8.77931 15.6074L10.3268 14.0599L11.6125 15.3455L10.065 16.8931L8.77931 15.6074ZM11.8743 12.5123L13.4219 10.9648L14.7075 12.2504L13.1601 13.798L11.8743 12.5123ZM14.9694 9.41721L15.7433 8.64343L17.0289 9.92907L16.2551 10.7029L14.9694 9.41721Z" fill="black"/>
<path id="&#231;&#155;&#180;&#231;&#186;&#191; 7&#229;&#164;&#135;&#228;&#187;&#189;" d="M16.4932 28.0323L17.2669 27.2584L18.5526 28.5441L17.7788 29.3179L16.4932 28.0323ZM18.8144 25.7109L20.362 24.1633L21.6477 25.449L20.1002 26.9965L18.8144 25.7109ZM21.9095 22.6158L23.4571 21.0683L24.7427 22.3539L23.1952 23.9014L21.9095 22.6158ZM25.0046 19.5206L25.7783 18.7469L27.0641 20.0325L26.2903 20.8063L25.0046 19.5206Z" fill="black"/>
<path id="&#230;&#152;&#159;&#229;&#189;&#162;" fill-rule="evenodd" clip-rule="evenodd" d="M19.5356 18.0998L17.2272 17.7643L16.1948 15.6725L15.1625 17.7643L12.854 18.0998L14.5245 19.728L14.1301 22.0272L16.1948 20.9416L18.2595 22.0272L17.8653 19.728L19.5356 18.0998Z" fill="#554242"/>
<path id="&#230;&#152;&#159;&#229;&#189;&#162;_2" fill-rule="evenodd" clip-rule="evenodd" d="M17.8953 19.6987L19.5356 18.0998L17.2687 17.7703L17.2272 17.7643L17.2086 17.7267L16.1948 15.6725L15.1811 17.7267L15.1625 17.7643L15.1209 17.7703L12.854 18.0998L14.4944 19.6987L14.5245 19.728L14.5174 19.7694L14.1301 22.0272L16.1576 20.9612L16.1948 20.9416L16.232 20.9612L18.2595 22.0272L17.8724 19.7694L17.8653 19.728L17.8953 19.6987Z" fill="black"/>
</g>
</g>
</svg>
