<svg width="40" height="40" viewBox="0 0 40 40" fill="none" xmlns="http://www.w3.org/2000/svg">
<g id="icon_shouye_yinyuejie">
<g id="Group">
<path id="&#232;&#183;&#175;&#229;&#190;&#132;" fill-rule="evenodd" clip-rule="evenodd" d="M17.9777 7.14043C17.2261 6.3887 16.9107 5.43488 16.1702 6.17542C15.4296 6.91597 17.2261 6.3887 17.9777 7.14043ZM22.2756 12.8605L20.5742 11.7763C19.8226 11.0246 14.8647 15.9134 14.1564 16.6218C13.5101 17.2681 12.653 18.3589 13.1439 19.1035L9.98461 15.9443C9.23297 15.1926 8.86533 13.4802 8.12479 14.2208C7.38424 14.9613 8.55515 15.1875 9.30688 15.9392L16.2969 23.1623L14.2205 25.2142C13.1071 25.2253 12.2147 24.7091 11.1411 25.8774C10.0675 27.0458 12.0966 27.9912 13.2102 27.9801C15.8016 27.9755 17.2969 28.3698 18.1393 28.7992C19.4031 29.4433 20.0094 29.88 21.6281 29.8638C22.8359 29.8517 23.5268 29.5021 24.3396 28.8454L29.2714 33.7774C29.9044 34.4104 31.3382 34.0249 33.5209 31.8422C35.7035 29.6595 35.5846 28.2347 34.9516 27.6017L28.0408 22.4678C28.4588 20.8608 29.28 19.2425 28.0072 17.9697L17.9777 7.14043L22.2756 12.8605Z" fill="#C0FD47"/>
<path id="&#229;&#189;&#162;&#231;&#138;&#182;" fill-rule="evenodd" clip-rule="evenodd" d="M17.6001 14.3598L12.6233 9.38304C11.5277 8.2874 11.5076 6.49095 12.6031 5.3954C13.7099 4.28867 15.4841 4.30886 16.5908 5.41558L27.8373 16.6622C29.2763 18.1011 29.8219 19.7759 29.4741 21.6864L34.7398 26.9521C35.9324 28.1448 35.0911 30.1786 32.2161 33.0537C31.0754 34.1943 30.0031 35.0222 28.9991 35.5374C27.7106 36.1986 26.7491 36.2119 26.1145 35.5774L21.0079 30.3409L22.3096 29.0715L27.4001 34.2918L27.3641 34.2113C27.5688 34.1873 27.8371 34.0901 28.1691 33.9198C29.0039 33.4915 29.9243 32.7742 30.9304 31.768C31.9366 30.7619 32.6538 29.8415 33.0821 29.0067C33.2525 28.6747 33.3497 28.4064 33.3737 28.2017L33.4541 28.2377L27.4684 22.252L27.5994 21.7484C27.9782 20.292 27.629 19.0251 26.5517 17.9478L15.3051 6.70122C14.9084 6.30458 14.2854 6.2844 13.8888 6.68104C13.5032 7.06658 13.5234 7.71186 13.909 8.09731L18.8858 13.0742L17.6001 14.3598ZM13.1289 25.9795L4.57792 17.4285C3.48235 16.3329 3.46219 14.5365 4.55776 13.4409C5.66447 12.3342 7.43869 12.3544 8.54532 13.4611L13.5221 18.4379L12.2365 19.7235L7.25969 14.7467C6.86305 14.3501 6.24008 14.3299 5.84341 14.7266C5.45788 15.1121 5.47804 15.7573 5.86357 16.1429L14.4145 24.6938L13.1289 25.9795Z" fill="black"/>
<path id="&#232;&#183;&#175;&#229;&#190;&#132;_2" d="M32.4012 24.5606L34.6935 26.8529C35.3281 27.4875 35.3147 28.4491 34.6535 29.7377C34.1384 30.7416 33.3105 31.8139 32.1699 32.9545C31.0292 34.0952 29.9569 34.9231 28.953 35.4382C27.6644 36.0995 26.7028 36.1128 26.0682 35.4782L23.7759 33.1859L25.0616 31.9002L25.018 31.8019C25.24 31.7685 25.528 31.659 25.8821 31.4734C26.7406 31.0235 27.6439 30.3246 28.5919 29.3766C28.9988 28.9697 29.3697 28.5561 29.7047 28.1358C30.7987 26.7629 31.269 25.9997 31.1155 25.8463L32.4012 24.5606C33.3203 25.4798 32.8955 27.0492 31.1266 29.2689C30.7491 29.7426 30.3327 30.207 29.8775 30.6622C27.0024 33.5373 24.9685 34.3785 23.7759 33.1859L24.4187 32.5431L25.0616 31.9002L27.3539 34.1926L27.3179 34.1121C27.5225 34.0881 27.7909 33.991 28.1229 33.8206C28.9576 33.3923 29.878 32.6751 30.8842 31.6689C31.8903 30.6628 32.6076 29.7423 33.0359 28.9076C33.2062 28.5756 33.3034 28.3072 33.3274 28.1026L33.4079 28.1386L31.1155 25.8463L32.4012 24.5606Z" fill="black"/>
<path id="&#231;&#159;&#169;&#229;&#189;&#162;" d="M10.6498 14.2259C11.7453 13.1303 13.5216 13.1303 14.6172 14.2259L17.0931 16.7018C18.1887 17.7974 18.1887 19.5736 17.0931 20.6692C15.9975 21.7648 14.2212 21.7648 13.1257 20.6692L10.6498 18.1933C9.55424 17.0977 9.55424 15.3215 10.6498 14.2259ZM11.9354 15.5115C11.5499 15.8971 11.5499 16.5221 11.9354 16.9077L14.4113 19.3836C14.7969 19.7691 15.422 19.7691 15.8075 19.3836C16.193 18.998 16.193 18.373 15.8075 17.9874L13.3316 15.5115C12.9461 15.126 12.321 15.126 11.9354 15.5115Z" fill="black"/>
<path id="&#231;&#159;&#169;&#229;&#189;&#162;&#229;&#164;&#135;&#228;&#187;&#189; 15" d="M13.3315 11.5444C14.427 10.4488 16.2033 10.4488 17.2989 11.5444L19.7748 14.0203C20.8704 15.1159 20.8704 16.8921 19.7748 17.9877C18.6792 19.0833 16.9029 19.0833 15.8074 17.9877L13.3315 15.5118C12.2359 14.4162 12.2359 12.6399 13.3315 11.5444ZM14.6171 12.83C14.2316 13.2156 14.2316 13.8406 14.6171 14.2262L17.093 16.7021C17.4786 17.0876 18.1036 17.0876 18.4891 16.7021C18.8747 16.3165 18.8747 15.6915 18.4891 15.3059L16.0132 12.83C15.6277 12.4445 15.0027 12.4445 14.6171 12.83Z" fill="black"/>
<path id="&#232;&#183;&#175;&#229;&#190;&#132;_3" d="M23.9263 28.6051C23.7238 29.1615 23.4177 29.6694 23.0081 30.1288C21.9191 31.3499 20.4907 31.9693 18.7229 31.9869C17.6231 31.9979 16.462 31.6838 15.2394 31.0447C15.0545 30.9479 14.9121 30.8741 14.8123 30.8233C14.1001 30.4603 12.5213 30.2809 10.0757 30.2853C8.13953 30.3046 7.14647 29.3082 7.09635 27.2961C7.07562 26.4656 7.33947 25.7511 7.88789 25.1524C8.44898 24.54 9.13944 24.2297 9.95926 24.2215L14.5104 24.1752L14.5197 25.0843L13.7549 24.5928C14.7987 22.9685 16.3819 22.1457 18.5043 22.1245C18.9768 22.1198 19.4411 22.1665 19.8973 22.2646L19.5149 24.0421C19.1908 23.9724 18.86 23.9393 18.5224 23.9426C17.054 23.9573 15.9747 24.5017 15.2844 25.5757L15.0193 25.9883L9.97744 26.0396C9.6838 26.0425 9.43417 26.1562 9.22853 26.3807C9.01029 26.6189 8.90541 26.909 8.91389 27.2509C8.93432 28.0692 9.32053 28.4746 10.0725 28.4671C12.8103 28.4623 14.6654 28.7077 15.6379 29.2034C15.7433 29.2571 15.8913 29.3338 16.0818 29.4334C17.0348 29.9316 17.9091 30.1768 18.7047 30.1688C19.9367 30.1565 20.9188 29.7398 21.6511 28.9187C21.9059 28.6329 22.0948 28.3211 22.2178 27.9832L23.9263 28.6051Z" fill="black"/>
</g>
</g>
</svg>
