<svg width="20" height="18" viewBox="0 0 20 18" fill="none" xmlns="http://www.w3.org/2000/svg">
<g id="icon_xinxi">
<g id="Group 348450738">
<path id="Vector" d="M18.3354 17.793H1.65566C1.24771 17.7924 0.856632 17.63 0.568218 17.3415C0.279804 17.053 0.117601 16.6619 0.117188 16.2539V3.75389C0.117653 3.3459 0.279932 2.95476 0.568425 2.66626C0.856918 2.37777 1.24806 2.21549 1.65605 2.21503H18.3357C18.7437 2.21544 19.1349 2.3777 19.4234 2.66621C19.7119 2.95471 19.8742 3.34589 19.8746 3.75389V16.2539C19.8742 16.662 19.712 17.0533 19.4234 17.3418C19.1348 17.6304 18.7435 17.7926 18.3354 17.793ZM1.65566 3.41659C1.56641 3.41775 1.48114 3.45373 1.41803 3.51684C1.35491 3.57996 1.31894 3.66523 1.31777 3.75448V16.2545C1.31899 16.3437 1.35498 16.4289 1.41809 16.492C1.4812 16.5551 1.56644 16.591 1.65566 16.5922H18.3354C18.4246 16.591 18.5098 16.5551 18.5729 16.492C18.636 16.4289 18.672 16.3437 18.6732 16.2545V3.75448C18.6721 3.66523 18.6361 3.57996 18.573 3.51684C18.5099 3.45373 18.4246 3.41775 18.3354 3.41659H1.65566Z" fill="#0D0F02"/>
<path id="Vector_2" d="M10.0074 11.9684C9.58625 11.9716 9.17869 11.8192 8.86292 11.5405L0.484009 5.01799L1.3176 4.08655L9.69651 10.609C9.85921 10.7545 10.1557 10.7545 10.3184 10.609L18.6973 4.08655L19.5313 5.01799L11.1524 11.5414C10.8363 11.8199 10.4287 11.972 10.0074 11.9684Z" fill="#0D0F02"/>
</g>
</g>
</svg>
