<svg width="12" height="13" viewBox="0 0 12 13" fill="none" xmlns="http://www.w3.org/2000/svg">
<g id="icon_dingwei">
<path id="Subtract" fill-rule="evenodd" clip-rule="evenodd" d="M6.51767 10.6156C7.59942 9.57016 10 7.06241 10 5.39565C10 3.24414 8.20914 1.5 6 1.5C3.79086 1.5 2 3.24414 2 5.39565C2 7.06241 4.40058 9.57016 5.48233 10.6156C5.77378 10.8973 6.22622 10.8973 6.51767 10.6156ZM6 7.09999C6.88366 7.09999 7.6 6.38365 7.6 5.49999C7.6 4.61634 6.88366 3.89999 6 3.89999C5.11634 3.89999 4.4 4.61634 4.4 5.49999C4.4 6.38365 5.11634 7.09999 6 7.09999Z" fill="#999999"/>
</g>
</svg>
