<svg width="16" height="16" viewBox="0 0 16 16" fill="none" xmlns="http://www.w3.org/2000/svg">
<g id="icon_dingwei">
<path id="Subtract" fill-rule="evenodd" clip-rule="evenodd" d="M8.72208 14.5772C10.2345 13.1092 13.8552 9.33473 13.8552 6.8438C13.8552 3.69527 11.2653 1.14288 8.07046 1.14288C4.87563 1.14288 2.28571 3.69527 2.28571 6.8438C2.28571 9.33473 5.90643 13.1092 7.41885 14.5772C7.78562 14.9332 8.3553 14.9332 8.72208 14.5772ZM8.07047 9.4068C9.66788 9.4068 10.9628 8.11183 10.9628 6.51442C10.9628 4.91701 9.66788 3.62205 8.07047 3.62205C6.47305 3.62205 5.17809 4.91701 5.17809 6.51442C5.17809 8.11183 6.47305 9.4068 8.07047 9.4068Z" fill="#0D0F02"/>
</g>
</svg>
