<svg width="40" height="40" viewBox="0 0 40 40" fill="none" xmlns="http://www.w3.org/2000/svg">
<g id="&#228;&#189;&#147;&#232;&#130;&#178;" clip-path="url(#clip0_1995_9500)">
<g id="Group 348451273">
<path id="Intersect" fill-rule="evenodd" clip-rule="evenodd" d="M11.042 22.9542C10.8143 19.9774 12.7254 18.7722 14.0148 18.3005C14.652 18.0674 15.1799 17.5237 15.2384 16.8432C15.5939 12.7081 18.8265 9.43669 22.9616 9.08115C23.5923 9.02692 24.1009 8.56309 24.4002 8.00468L29.9873 21.9593L29.9949 21.9517C30.4216 22.2093 30.8252 22.5231 31.1949 22.8928C33.5596 25.2575 33.6376 29.0134 31.3691 31.282C31.0711 31.5799 30.7475 31.8374 30.4048 32.0545C29.855 31.767 29.337 31.3908 28.8727 30.9265C28.5031 30.5568 28.1893 30.1532 27.9316 29.7265L27.9389 29.7192L11.042 22.9542Z" fill="#94C2F4"/>
<g id="Group 348451270">
<path id="Subtract" d="M21.8667 30.0874L21.2303 29.451L20.7319 29.9494L21.0963 30.5527L21.8667 30.0874ZM29.8229 22.1312L30.2882 21.3608L29.6849 20.9964L29.1865 21.4948L29.8229 22.1312ZM23.4441 30.6508C23.1262 30.3329 22.8574 29.9868 22.6371 29.6221L21.0963 30.5527C21.3913 31.0412 21.75 31.5023 22.1713 31.9236L23.4441 30.6508ZM30.5605 30.825C28.6681 32.7174 25.4825 32.6892 23.4441 30.6508L22.1713 31.9236C24.8624 34.6146 29.1887 34.7424 31.8333 32.0978L30.5605 30.825ZM30.3863 23.7086C32.4247 25.747 32.4529 28.9326 30.5605 30.825L31.8333 32.0978C34.4779 29.4532 34.3501 25.1268 31.6591 22.4358L30.3863 23.7086ZM29.3576 22.9016C29.7223 23.1219 30.0684 23.3907 30.3863 23.7086L31.6591 22.4358C31.2378 22.0145 30.7767 21.6558 30.2882 21.3608L29.3576 22.9016ZM29.1865 21.4948L21.2303 29.451L22.5031 30.7238L30.4593 22.7676L29.1865 21.4948Z" fill="black"/>
<path id="Rectangle 34624410" d="M4.9773 23.3149C4.74983 20.3418 6.65597 19.1359 7.94531 18.663C8.58252 18.4293 9.11549 17.8802 9.17363 17.2039V17.2039C9.52685 13.0957 12.7886 9.79515 16.8968 9.44192V9.44192C17.5938 9.382 18.1502 8.8095 18.4307 8.16867C18.912 7.06913 20.1057 5.54723 23.0503 5.24194L29.8153 22.1388L21.8742 30.08L4.9773 23.3149Z" stroke="black" stroke-width="1.8"/>
<path id="Vector 303" d="M8.90088 17.8051L25.0657 27.096" stroke="black" stroke-width="1.8"/>
<path id="Vector 304" d="M17.8369 8.86902L27.1279 25.0339" stroke="black" stroke-width="1.8"/>
</g>
<path id="Vector 303_2" d="M22.8457 18.0022C22.5856 20.1479 20.1797 22.5538 18.034 22.8139" stroke="black" stroke-width="1.8"/>
<path id="Vector 304_2" d="M26.2632 13.1708C26.5853 15.5551 25.574 17.9806 23.1897 17.6585" stroke="black" stroke-width="1.8"/>
<path id="Vector 305" d="M12.8589 26.5748C15.2432 26.8969 18.0124 25.5418 17.6903 23.1576" stroke="black" stroke-width="1.8"/>
</g>
</g>
<defs>
<clipPath id="clip0_1995_9500">
<rect width="40" height="40" fill="white"/>
</clipPath>
</defs>
</svg>
