<svg width="40" height="40" viewBox="0 0 40 40" fill="none" xmlns="http://www.w3.org/2000/svg">
<g id="icon_shouye_tuokouxiu">
<g id="Group">
<path id="&#229;&#189;&#162;&#231;&#138;&#182;&#231;&#187;&#147;&#229;&#144;&#136;" fill-rule="evenodd" clip-rule="evenodd" d="M15.858 7.89664C15.4693 8.1033 15.1042 8.3704 14.7766 8.69794L12.097 11.3776C10.3218 13.1527 10.3218 16.0307 12.097 17.8058L21.1412 26.85C21.53 26.6434 21.8951 26.3763 22.2226 26.0487L24.9023 23.3691C26.6774 21.594 26.6774 18.716 24.9023 16.9409L15.858 7.89664Z" fill="#FFC626"/>
<path id="&#231;&#159;&#169;&#229;&#189;&#162;&#229;&#164;&#135;&#228;&#187;&#189; 5" d="M5.99946 9.82603L8.6791 7.14638C10.8093 5.01623 14.2628 5.01623 16.393 7.14638L25.5449 16.2983C27.6751 18.4285 27.6751 21.8821 25.5449 24.0122L22.8653 26.6919C20.7352 28.822 17.2815 28.822 15.1514 26.6919L5.99946 17.5399C3.86932 15.4098 3.86932 11.9562 5.99946 9.82603ZM7.2851 11.1117C5.86501 12.5318 5.86501 14.8342 7.2851 16.2543L16.437 25.4062C17.8571 26.8263 20.1595 26.8263 21.5796 25.4062L24.2593 22.7266C25.6794 21.3065 25.6794 19.0041 24.2593 17.584L15.1074 8.43203C13.6873 7.01194 11.3848 7.01194 9.96475 8.43203L7.2851 11.1117Z" fill="black"/>
<path id="&#232;&#183;&#175;&#229;&#190;&#132;" d="M23.2458 9.44577L28.2537 14.4537C29.8224 16.0223 30.5694 17.9488 30.4949 20.2331C30.4211 22.4942 29.5613 24.4476 27.9157 26.0932L24.9458 29.0631C23.3002 30.7088 21.3468 31.5685 19.0857 31.6423C16.8014 31.7169 14.8749 30.9698 13.3062 29.4011L8.29834 24.3933L9.58399 23.1076L14.5919 28.1155C15.789 29.3126 17.2672 29.8825 19.0263 29.8251C20.8086 29.7669 22.3532 29.0843 23.6601 27.7775L26.6301 24.8075C27.9369 23.5007 28.6194 21.9561 28.6776 20.1738C28.7351 18.4146 28.1652 16.9365 26.9681 15.7393L21.9602 10.7314L23.2458 9.44577Z" fill="black"/>
<path id="&#229;&#189;&#162;&#231;&#138;&#182;&#231;&#187;&#147;&#229;&#144;&#136;_2" fill-rule="evenodd" clip-rule="evenodd" d="M27.3864 30.9009L32.4813 25.806C32.8364 25.451 33.4119 25.451 33.767 25.806L34.8212 26.8602C35.1762 27.2152 35.1762 27.7909 34.8212 28.1459L29.7263 33.2408C29.3713 33.5958 28.7956 33.5958 28.4406 33.2408L27.3864 32.1866C27.0314 31.8315 27.0314 31.256 27.3864 30.9009Z" fill="#FFC626"/>
<path id="&#231;&#159;&#169;&#229;&#189;&#162;" d="M24.0165 32.9855L31.8386 25.1633C32.5487 24.4532 33.6999 24.4532 34.41 25.1633L35.4642 26.2175C36.1743 26.9275 36.1743 28.0787 35.4642 28.7888L27.642 36.6111C26.9319 37.3211 25.7807 37.3211 25.0706 36.6111L24.0165 35.5568C23.3064 34.8468 23.3064 33.6955 24.0165 32.9855ZM25.3021 34.2712L26.3563 35.3254L34.1785 27.5032L33.1243 26.4489L25.3021 34.2712Z" fill="black"/>
<path id="&#231;&#155;&#180;&#231;&#186;&#191;" d="M26.709 26.5704L28.9347 28.796L27.6491 30.0817L25.4233 27.856L26.709 26.5704Z" fill="black"/>
<path id="&#231;&#155;&#180;&#231;&#186;&#191; 2&#229;&#164;&#135;&#228;&#187;&#189; 8" d="M10.0781 19.8586L13.0193 16.9174L14.0478 17.9459L11.1067 20.8871L10.0781 19.8586Z" fill="black"/>
<path id="&#231;&#155;&#180;&#231;&#186;&#191; 2&#229;&#164;&#135;&#228;&#187;&#189; 9" d="M12.1182 21.8987L15.0593 18.9579L16.0877 19.9865L13.1466 22.9273L12.1182 21.8987Z" fill="black"/>
<path id="&#231;&#155;&#180;&#231;&#186;&#191; 2&#229;&#164;&#135;&#228;&#187;&#189; 10" d="M14.1587 23.9393L17.0998 20.9981L18.1283 22.0266L15.1872 24.9678L14.1587 23.9393Z" fill="black"/>
<path id="&#231;&#155;&#180;&#231;&#186;&#191; 2&#229;&#164;&#135;&#228;&#187;&#189; 11" d="M16.1987 25.9794L19.1398 23.0382L20.1684 24.0667L17.2273 27.0079L16.1987 25.9794Z" fill="black"/>
<path id="&#231;&#155;&#180;&#231;&#186;&#191; 2&#229;&#164;&#135;&#228;&#187;&#189; 4" d="M15.7705 14.1661L18.7116 11.2249L19.7401 12.2534L16.7991 15.1946L15.7705 14.1661Z" fill="black"/>
<path id="&#231;&#155;&#180;&#231;&#186;&#191; 2&#229;&#164;&#135;&#228;&#187;&#189; 5" d="M17.8105 16.2063L20.7516 13.2655L21.7801 14.294L18.839 17.2348L17.8105 16.2063Z" fill="black"/>
<path id="&#231;&#155;&#180;&#231;&#186;&#191; 2&#229;&#164;&#135;&#228;&#187;&#189; 6" d="M19.8511 18.2468L22.7922 15.3056L23.8207 16.3341L20.8796 19.2753L19.8511 18.2468Z" fill="black"/>
<path id="&#231;&#155;&#180;&#231;&#186;&#191; 2&#229;&#164;&#135;&#228;&#187;&#189; 7" d="M21.8911 20.287L24.8322 17.3457L25.8607 18.3742L22.9197 21.3155L21.8911 20.287Z" fill="black"/>
<path id="&#231;&#155;&#180;&#231;&#186;&#191; 2" d="M7.04459 10.6518L11.1394 14.7463L10.1109 15.7748L6.01611 11.6804L7.04459 10.6518Z" fill="black"/>
<path id="&#231;&#155;&#180;&#231;&#186;&#191; 2&#229;&#164;&#135;&#228;&#187;&#189;" d="M8.98947 8.7067L13.0843 12.8016L12.0557 13.8301L7.96094 9.7352L8.98947 8.7067Z" fill="black"/>
<path id="&#231;&#155;&#180;&#231;&#186;&#191; 2&#229;&#164;&#135;&#228;&#187;&#189; 2" d="M10.9343 6.76196L15.029 10.8565L14.0005 11.885L9.90576 7.79056L10.9343 6.76196Z" fill="black"/>
</g>
</g>
</svg>
