<svg width="12" height="12" viewBox="0 0 12 12" fill="none" xmlns="http://www.w3.org/2000/svg">
<g id="&#230;&#151;&#182;&#233;&#151;&#180; 2">
<path id="Subtract" fill-rule="evenodd" clip-rule="evenodd" d="M2 6.3C2 3.92891 3.92891 2 6.3 2C8.67109 2 10.6 3.92891 10.6 6.3C10.6 8.67109 8.67109 10.6 6.3 10.6C3.92891 10.6 2 8.67109 2 6.3ZM6.29993 3.91151C6.29993 3.64764 6.08603 3.43373 5.82216 3.43373C5.55829 3.43373 5.34438 3.64764 5.34438 3.91151V7.07346L7.5196 8.16107C7.75561 8.27908 8.0426 8.18341 8.1606 7.9474C8.27861 7.71139 8.18295 7.4244 7.94694 7.3064L6.29993 6.4829V3.91151Z" fill="#999999"/>
</g>
</svg>
