<svg width="28" height="28" viewBox="0 0 28 28" fill="none" xmlns="http://www.w3.org/2000/svg">
<g id="Group 348450741">
<circle id="Ellipse 294" cx="14" cy="14" r="14" fill="#FFC626"/>
<g id="&#231;&#155;&#184;&#230;&#156;&#186; 1">
<g id="Group 348451180">
<path id="Vector" d="M19.963 9.73314H17.9422L17.074 7.75594C16.8724 7.29673 16.4025 7 15.8769 7H12.1231C11.5975 7 11.1276 7.29673 10.926 7.75594L10.0578 9.73314H8.03704C6.91381 9.73314 6 10.5977 6 11.6604V18.0728C6 19.1355 6.91381 20 8.03704 20H19.963C21.0862 20 22 19.1355 22 18.0728V11.6604C22 10.5977 21.0862 9.73314 19.963 9.73314ZM21.2593 18.0728C21.2593 18.749 20.6777 19.2992 19.963 19.2992H8.03704C7.32225 19.2992 6.74074 18.749 6.74074 18.0728V11.6604C6.74074 10.9841 7.32225 10.4339 8.03704 10.4339H10.305C10.4547 10.4339 10.5896 10.3487 10.6471 10.2179L11.61 8.02475C11.6964 7.82797 11.8978 7.70079 12.1231 7.70079H15.8769C16.1022 7.70079 16.3036 7.82795 16.3899 8.02477L17.3529 10.218C17.4104 10.3487 17.5453 10.4339 17.695 10.4339H19.963C20.6778 10.4339 21.2593 10.9841 21.2593 11.6604L21.2593 18.0728Z" fill="#0D0F02" stroke="#0D0F02" stroke-width="0.5"/>
<path id="Vector_2" d="M14 11C12.3458 11 11 12.3458 11 14C11 15.6542 12.3458 17 14 17C15.6542 17 17 15.6542 17 14C17 12.3458 15.6542 11 14 11ZM14 16.4094C12.6715 16.4094 11.5906 15.3285 11.5906 14C11.5906 12.6715 12.6715 11.5906 14 11.5906C15.3285 11.5906 16.4094 12.6715 16.4094 14C16.4094 15.3285 15.3285 16.4094 14 16.4094Z" fill="#0D0F02" stroke="#0D0F02" stroke-width="0.5"/>
</g>
</g>
</g>
</svg>
