<svg width="28" height="28" viewBox="0 0 28 28" fill="none" xmlns="http://www.w3.org/2000/svg">
<g id="&#233;&#166;&#150;&#233;&#161;&#181;2.0">
<g id="Group 348450748">
<path id="Union" fill-rule="evenodd" clip-rule="evenodd" d="M20.3333 10.6413C20.3333 9.99571 20.0217 9.38982 19.4965 9.01434L14.6132 5.52307C13.8735 4.9705 12.8225 4.9705 12.0829 5.52306L5.40378 9.89999C4.83979 10.2696 4.5 10.8985 4.5 11.5728V19.0508C4.5 20.0953 5.40671 20.942 6.52519 20.942H18.3081C19.4266 20.942 20.3333 20.0953 20.3333 19.0508V10.6413Z" fill="url(#paint0_linear_476_3730)"/>
<g id="Group 348450746">
<path id="Line 48" d="M25.3334 12.3334L15.9917 5.66072C14.6009 4.6673 12.7326 4.6673 11.3418 5.66072L2.00008 12.3334" stroke="black" stroke-width="2" stroke-linecap="round"/>
<path id="Vector 4" d="M4.5 10.6666V20C4.5 22.2091 6.29086 24 8.5 24H18.8333C21.0425 24 22.8333 22.2091 22.8333 20V10.6666" stroke="black" stroke-width="2"/>
</g>
<g id="Group 348450747">
<path id="Line 49" d="M17.8334 13.442L17.8334 16.7754" stroke="black" stroke-width="2.2" stroke-linecap="round"/>
<path id="Line 50" d="M13.6666 12.6086L13.6666 17.6086" stroke="black" stroke-width="2.2" stroke-linecap="round"/>
<path id="Line 51" d="M9.5 13.442L9.5 16.7754" stroke="black" stroke-width="2.2" stroke-linecap="round"/>
</g>
</g>
</g>
<defs>
<linearGradient id="paint0_linear_476_3730" x1="12.4167" y1="-9.93303" x2="12.4167" y2="17.9336" gradientUnits="userSpaceOnUse">
<stop stop-color="#C0F500"/>
<stop offset="1" stop-color="#51FE81"/>
</linearGradient>
</defs>
</svg>
