<svg width="28" height="28" viewBox="0 0 28 28" fill="none" xmlns="http://www.w3.org/2000/svg">
<g id="&#231;&#142;&#176;&#229;&#156;&#186;&#229;&#155;&#158;&#233;&#161;&#190;2.0">
<g id="Group 348450750">
<rect id="Rectangle 34624292" x="7.2" y="11.2" width="17.6" height="12.8" rx="3" fill="url(#paint0_linear_476_3731)"/>
<path id="Polygon 4" d="M17.7 15.1339C18.3667 15.5188 18.3667 16.4811 17.7 16.866L13.5 19.2908C12.8333 19.6757 12 19.1946 12 18.4248L12 13.5751C12 12.8053 12.8333 12.3242 13.5 12.7091L17.7 15.1339Z" fill="black"/>
<rect id="Rectangle 34624291" x="4" y="8" width="20.8" height="16" rx="4" stroke="black" stroke-width="2"/>
<g id="Group 348450749">
<path id="Line 52" d="M17.2374 6.96411L16.7374 7.83014L18.4694 8.83014L18.9694 7.96411L17.2374 6.96411ZM20.9694 4.50001C21.2456 4.02172 21.0817 3.41013 20.6034 3.13398C20.1251 2.85784 19.5135 3.02172 19.2374 3.50001L20.9694 4.50001ZM18.9694 7.96411L20.9694 4.50001L19.2374 3.50001L17.2374 6.96411L18.9694 7.96411Z" fill="black"/>
<path id="Line 53" d="M11.666 6.96411L12.166 7.83014L10.434 8.83014L9.93399 7.96411L11.666 6.96411ZM7.93399 4.50001C7.65785 4.02172 7.82173 3.41013 8.30002 3.13398C8.77831 2.85784 9.3899 3.02172 9.66604 3.50001L7.93399 4.50001ZM9.93399 7.96411L7.93399 4.50001L9.66604 3.50001L11.666 6.96411L9.93399 7.96411Z" fill="black"/>
</g>
</g>
</g>
<defs>
<linearGradient id="paint0_linear_476_3731" x1="16" y1="-0.960049" x2="16" y2="21.568" gradientUnits="userSpaceOnUse">
<stop stop-color="#C0F500"/>
<stop offset="1" stop-color="#51FE81"/>
</linearGradient>
</defs>
</svg>
