<svg width="28" height="28" viewBox="0 0 28 28" fill="none" xmlns="http://www.w3.org/2000/svg">
<g id="&#231;&#166;&#143;&#229;&#136;&#169;&#228;&#184;&#173;&#229;&#191;&#131;2.0">
<g id="Group 348450751">
<g id="Group 348450754">
<path id="Star 3" d="M13.5317 12.5634C13.6938 12.1305 14.3062 12.1305 14.4683 12.5634L15.2181 14.5665C15.29 14.7586 15.4719 14.8872 15.6769 14.8911L17.881 14.9328C18.3643 14.942 18.5546 15.5634 18.1594 15.8416L16.4657 17.034C16.2862 17.1603 16.2101 17.389 16.2781 17.5977L16.9067 19.527C17.0525 19.9747 16.5553 20.3574 16.1599 20.1019L14.2714 18.8816C14.1062 18.7749 13.8938 18.7749 13.7287 18.8816L11.8401 20.1019C11.4447 20.3574 10.9475 19.9747 11.0934 19.527L11.722 17.5977C11.79 17.389 11.7139 17.1603 11.5344 17.034L9.84067 15.8416C9.44544 15.5634 9.63578 14.942 10.119 14.9328L12.3231 14.8911C12.5281 14.8872 12.71 14.7586 12.7819 14.5665L13.5317 12.5634Z" fill="black"/>
<path id="Rectangle 34624292" d="M2.33491 13.5462C1.82852 11.8704 3.56723 10.3988 5.13632 11.1751L6.31965 11.7606C7.19433 12.1934 8.25363 11.9317 8.82618 11.1414L11.5706 7.35332C12.7683 5.7001 15.2317 5.7001 16.4294 7.35332L19.1738 11.1414C19.7464 11.9317 20.8057 12.1934 21.6803 11.7606L22.8637 11.1751C24.4328 10.3988 26.1715 11.8704 25.6651 13.5462L23.2708 21.4695C22.7607 23.1576 21.2053 24.3125 19.4418 24.3125H8.55816C6.79468 24.3125 5.23926 23.1576 4.72915 21.4695L2.33491 13.5462Z" stroke="black" stroke-width="2"/>
</g>
</g>
</g>
</svg>
