<svg width="92" height="15" viewBox="0 0 92 15" fill="none" xmlns="http://www.w3.org/2000/svg">
<g id="&#229;&#191;&#151;&#230;&#132;&#191;&#232;&#128;&#133;&#233;&#170;&#140;&#232;&#175;&#129;">
<path id="Vector" d="M78.6336 4.79384L75.0756 2.7901L76.4801 0.336914L80.0381 2.35939L78.6336 4.79384ZM88.334 4.36313V6.42306H91.2741V8.95115H88.334V11.3856H91.5924V14.6628H80.7497V11.3856H81.2179V6.08598H83.6711V11.3856H84.7385V4.36313H80.9745V0.80508H91.5924V4.36313H88.334ZM80.319 10.674V14.6628H76.1617L76.3115 7.95864H74.6074V5.20583H79.2703V11.1422L80.319 10.674Z" fill="#0D0F02"/>
<path id="Vector_2" d="M73.5774 4.51311L72.3039 6.72285L71.5362 6.1236V7.3221H63.671V6.62921C63.4712 6.79151 63.1591 7.00999 62.7347 7.28464L61.4238 4.77528L61.3114 7.02247H62.2478L62.0605 15H58.7272C58.877 14.4881 59.0143 13.6829 59.1392 12.5843C59.264 11.4856 59.3514 10.4057 59.4013 9.34457H55.5811L55.862 4.79401H57.7721V7.02247H58.7459L58.877 3.70787H55.5811V0.730338H61.6111L61.4238 4.70037C62.2727 4.07616 63.0405 3.38327 63.7272 2.62172C64.4138 1.86017 65.0443 0.998752 65.6186 0.0374538L68.7272 0C68.6897 0.0749069 68.6523 0.162298 68.6148 0.262172C68.5774 0.349563 68.5337 0.455681 68.4837 0.580525L73.5774 4.51311ZM70.1504 5.05618L67.229 2.79026C66.6672 3.61423 66.0555 4.36954 65.3938 5.05618H70.1504ZM71.8732 8.91386C71.3239 10.3745 70.8745 11.4357 70.5249 12.0974H72.098V14.7566H62.9219V12.0974H64.4013L63.2403 8.57678L65.1504 7.97753L66.4613 12.0974H66.9294L65.862 8.2397L67.8283 7.71536L68.8583 11.367C69.0705 10.9301 69.3264 10.362 69.626 9.66292C69.9257 8.9638 70.1379 8.42697 70.2627 8.05244L71.8732 8.91386ZM58.8395 13.015H55.1504V10.5805H58.8395V13.015ZM69.0642 12.0974H69.832L68.9332 11.6292L69.0642 12.0974Z" fill="#0D0F02"/>
<g id="Group 348451242">
<path id="Vector_3" d="M44.2884 7.28516L42.8465 8.10913H53.3896V14.5511H39.2135V10.0941L38.1836 10.6185L36.5918 9.12036C37.3658 8.73335 38.5144 8.12161 40.0375 7.28516H36.9289V5.20651H43.221V4.12036H37.8652V1.59227H43.221V0.449951H47.3596V1.59227H52.4719V2.47242L53.8577 1.59227L54.5131 2.99677C53.6892 3.49614 52.9276 3.97055 52.2285 4.41999C52.0787 4.51986 51.8977 4.63847 51.6854 4.77579C51.4857 4.90064 51.2485 5.04421 50.9738 5.20651H54.6817V7.28516H44.2884ZM47.3596 5.20651H48.015L49.8128 4.12036H47.3596V5.20651ZM42.8652 9.8507V10.6559H49.8502V9.8507H42.8652ZM49.8502 12.3413V11.5174H42.8652V12.3413H49.8502Z" fill="#51FE81"/>
<path id="Vector_4" d="M28.6526 3.22119C28.4029 3.45839 28.0783 3.73305 27.6788 4.04516H34.6451V7.67812H32.7911L35.132 9.4946L33.0346 10.1126L30.9185 8.48336V10.2811H26.5926C26.9422 9.4072 27.1107 8.53954 27.0983 7.67812H24.1207L26.7425 8.20246C26.6176 8.4896 26.3867 8.82044 26.0496 9.19497C25.7125 9.55702 25.3692 9.81919 25.0196 9.98149L22.3043 9.43842C22.6538 9.25115 22.9909 8.98274 23.3155 8.63317C23.6401 8.28361 23.8773 7.96526 24.0271 7.67812H23.0533V4.04516H25.0196C25.2443 3.89534 25.6189 3.62069 26.1432 3.22119H22.0983C22.1482 4.53205 22.1732 5.98024 22.1732 7.56576C22.1732 9.78798 22.1045 12.0289 21.9672 14.2886L18.5215 13.9515C18.8461 11.4921 19.0084 8.89534 19.0084 6.16126C19.0084 4.37599 18.9335 2.50958 18.7837 0.562012H35.3005V3.22119H28.6526ZM30.544 4.96276H26.9859V5.48711H30.544V4.96276ZM26.9859 6.66688H30.544V6.16126H26.9859V6.66688ZM32.2481 7.67812H30.9185V8.07137L32.2481 7.67812ZM34.0833 11.9478L32.3604 12.3036L31.7986 10.6369L33.5589 10.2811L34.0833 11.9478ZM31.7612 12.1163L30.0383 12.4909L29.4953 10.8055L31.2181 10.4309L31.7612 12.1163ZM28.5964 12.7905L34.8511 12.5283V14.4384H25.7687V10.6556H28.5964V12.7905ZM22.6975 14.1013C22.7849 13.6394 22.8661 13.0464 22.941 12.3223C23.0159 11.5982 23.0408 11.0489 23.0159 10.6744L25.1882 10.8804C25.1882 11.3548 25.1507 11.9415 25.0758 12.6407C25.0009 13.3398 24.9197 13.8953 24.8323 14.3073L22.6975 14.1013Z" fill="#51FE81"/>
<path id="Vector_5" d="M16.367 1.51748V4.6261H10.3745V5.84333H15.9363V7.77217H0.430712V5.84333H5.99251V4.6261H0V1.51748H5.99251V0.543701H10.3745V1.51748H16.367ZM15.2809 10.6748L12.9588 11.2553L12.2097 8.72722L14.5506 8.16542L15.2809 10.6748ZM12.1723 10.9557L9.83146 11.4988L9.10112 8.98939L11.4232 8.40887L12.1723 10.9557ZM0 13.9145C0.11236 13.3652 0.218477 12.6099 0.318352 11.6486C0.418227 10.6873 0.468165 9.87579 0.468165 9.21411L0.449438 8.74595L3.33333 9.08303C3.33333 9.84457 3.2834 10.7497 3.18352 11.7984C3.09613 12.8471 2.98377 13.6648 2.84644 14.2516L0 13.9145ZM7.92135 11.9295L16.3296 11.5175V14.4388H4.11985V8.74595H7.92135V11.9295Z" fill="#51FE81"/>
</g>
</g>
</svg>
