<svg width="28" height="29" viewBox="0 0 28 29" fill="none" xmlns="http://www.w3.org/2000/svg">
<g id="&#229;&#156;&#176;&#229;&#157;&#128;&#231;&#174;&#161;&#231;&#144;&#134;">
<g id="Group 348451149">
<ellipse id="Ellipse 382" cx="13.8164" cy="9.68652" rx="2" ry="2.5" fill="#51FE81"/>
<path id="Vector" d="M9.06315 15.5761C9.27716 15.5762 9.48293 15.6586 9.63781 15.8063C9.79269 15.954 9.88482 16.1556 9.89511 16.3693C9.90539 16.5831 9.83304 16.7926 9.69305 16.9545C9.55306 17.1164 9.35616 17.2182 9.14315 17.2388L9.06315 17.2427H6.7776C6.727 17.2432 6.67749 17.2574 6.63442 17.284C6.59134 17.3105 6.55632 17.3483 6.53315 17.3933L6.50871 17.4461L4.0176 23.5338C4.00327 23.5719 3.99747 23.6126 4.00062 23.6532C4.00376 23.6937 4.01578 23.7331 4.03581 23.7685C4.05584 23.8039 4.0834 23.8345 4.11654 23.858C4.14967 23.8816 4.18759 23.8976 4.2276 23.905L4.2776 23.9094H23.2932C23.3326 23.9095 23.3717 23.9012 23.4078 23.8852C23.4439 23.8691 23.4762 23.8457 23.5026 23.8163C23.529 23.787 23.5489 23.7524 23.5611 23.7148C23.5733 23.6773 23.5774 23.6375 23.5732 23.5983L23.562 23.5572L21.0532 17.4227C21.0362 17.3777 21.0078 17.3378 20.9708 17.307C20.9338 17.2763 20.8894 17.2556 20.842 17.2472L20.7932 17.2427H18.2298C18.0158 17.2426 17.81 17.1602 17.6552 17.0125C17.5003 16.8648 17.4081 16.6632 17.3979 16.4494C17.3876 16.2357 17.4599 16.0262 17.5999 15.8643C17.7399 15.7024 17.9368 15.6006 18.1498 15.58L18.2298 15.5761H20.7932C21.567 15.5761 22.2632 16.0344 22.5643 16.7161L25.1143 22.9494C25.2203 23.2325 25.2589 23.5365 25.227 23.8372C25.195 24.1379 25.0933 24.4269 24.9301 24.6814C24.7668 24.936 24.5465 25.1489 24.2865 25.3033C24.0266 25.4577 23.7342 25.5494 23.4326 25.5711L23.2932 25.5761H4.2776C3.97423 25.5759 3.67511 25.5048 3.40414 25.3684C3.13318 25.232 2.89788 25.0341 2.71708 24.7905C2.53627 24.5469 2.41497 24.2644 2.36287 23.9656C2.31078 23.6667 2.32932 23.3598 2.41704 23.0694L2.46593 22.9261L4.95704 16.8372C5.08951 16.4841 5.32179 16.1772 5.6256 15.9537C5.92941 15.7303 6.29163 15.6001 6.66815 15.5788L6.7776 15.5755H9.06315V15.5761ZM16.2854 20.2983C16.5064 20.2983 16.7183 20.3861 16.8745 20.5424C17.0308 20.6987 17.1186 20.9106 17.1186 21.1316C17.1186 21.3526 17.0308 21.5646 16.8745 21.7208C16.7183 21.8771 16.5064 21.9649 16.2854 21.965H11.2854C11.0644 21.9649 10.8525 21.8771 10.6962 21.7208C10.54 21.5646 10.4522 21.3526 10.4522 21.1316C10.4522 20.9106 10.54 20.6987 10.6962 20.5424C10.8525 20.3861 11.0644 20.2983 11.2854 20.2983H16.2854ZM13.7854 2.52051C17.467 2.52051 20.452 5.50551 20.452 9.18717C20.452 10.9961 19.2454 13.2816 16.8326 16.0444L16.4793 16.4422L16.1104 16.8466L15.9193 17.0516L15.5254 17.4655C15.3915 17.6044 15.2548 17.745 15.1148 17.8861L14.6882 18.3138L14.2448 18.7472L13.7854 19.1872L13.5537 18.9661L13.102 18.5294C13.0287 18.4576 12.9555 18.3855 12.8826 18.3133L12.4559 17.8861C12.3182 17.7467 12.1814 17.6065 12.0454 17.4655L11.6509 17.0516L11.4604 16.8466L11.0915 16.4422L10.7382 16.0444C8.32537 13.2816 7.11871 10.9961 7.11871 9.18717C7.11871 5.50551 10.1037 2.52051 13.7854 2.52051ZM13.7854 4.18717C13.1288 4.18717 12.4786 4.3165 11.872 4.56778C11.2653 4.81905 10.7141 5.18735 10.2498 5.65164C9.78555 6.11593 9.41725 6.66713 9.16598 7.27376C8.9147 7.88039 8.78537 8.53057 8.78537 9.18717C8.78537 10.4372 9.70037 12.2166 11.5632 14.4438L11.8743 14.8088C12.1926 15.1783 12.5365 15.5588 12.9048 15.9505L13.2826 16.3466L13.6759 16.7494L13.7854 16.8594L14.0937 16.5472L14.4793 16.1472C14.7937 15.8172 15.0904 15.4955 15.3704 15.1811L15.6976 14.8083C15.7509 14.7472 15.8032 14.6855 15.8548 14.625L16.157 14.2633L16.4426 13.91C17.9676 11.9877 18.7404 10.4277 18.7837 9.28773L18.7854 9.18717C18.7854 8.53057 18.656 7.88039 18.4048 7.27376C18.1535 6.66713 17.7852 6.11593 17.3209 5.65164C16.8566 5.18735 16.3054 4.81905 15.6988 4.56778C15.0922 4.3165 14.442 4.18717 13.7854 4.18717ZM13.7854 5.85384C14.6694 5.85384 15.5173 6.20503 16.1424 6.83015C16.7675 7.45527 17.1187 8.30312 17.1187 9.18717C17.1187 10.0712 16.7675 10.9191 16.1424 11.5442C15.5173 12.1693 14.6694 12.5205 13.7854 12.5205C12.9013 12.5205 12.0535 12.1693 11.4284 11.5442C10.8032 10.9191 10.452 10.0712 10.452 9.18717C10.452 8.30312 10.8032 7.45527 11.4284 6.83015C12.0535 6.20503 12.9013 5.85384 13.7854 5.85384ZM13.7854 7.52051C13.3433 7.52051 12.9194 7.6961 12.6069 8.00866C12.2943 8.32122 12.1187 8.74515 12.1187 9.18717C12.1187 9.6292 12.2943 10.0531 12.6069 10.3657C12.9194 10.6782 13.3433 10.8538 13.7854 10.8538C14.2274 10.8538 14.6513 10.6782 14.9639 10.3657C15.2764 10.0531 15.452 9.6292 15.452 9.18717C15.452 8.74515 15.2764 8.32122 14.9639 8.00866C14.6513 7.6961 14.2274 7.52051 13.7854 7.52051Z" fill="#0D0F02"/>
</g>
</g>
</svg>
