<svg width="24" height="25" viewBox="0 0 24 25" fill="none" xmlns="http://www.w3.org/2000/svg">
<g id="icon_wentifankui">
<path id="Subtract" fill-rule="evenodd" clip-rule="evenodd" d="M5 6.28674C5 5.73446 5.44772 5.28674 6 5.28674H18.4C18.9523 5.28674 19.4 5.73446 19.4 6.28674V18.6867C19.4 19.239 18.9523 19.6867 18.4 19.6867H6C5.44772 19.6867 5 19.239 5 18.6867V6.28674ZM12.3293 7.90588C13.0789 7.90588 13.6818 8.11069 14.1377 8.5203C14.6015 8.92218 14.8333 9.47477 14.8333 10.1781C14.8333 10.7422 14.6865 11.2137 14.3928 11.5924C14.2923 11.716 13.9677 12.0175 13.419 12.4966C13.2026 12.6744 13.0403 12.8753 12.9321 13.0994C12.8084 13.3236 12.7466 13.5786 12.7466 13.8646V13.9216C12.7466 13.999 12.6839 14.0616 12.6066 14.0616H11.6462C11.5689 14.0616 11.5062 13.999 11.5062 13.9216V13.8646C11.5062 13.4163 11.5835 13.0492 11.738 12.7633C11.8849 12.4541 12.3215 11.9749 13.048 11.3258L13.2451 11.1055C13.4615 10.8273 13.5697 10.5452 13.5697 10.2592C13.5697 9.86506 13.4576 9.54819 13.2335 9.30861C13.0017 9.07675 12.6732 8.96083 12.2481 8.96083C11.7226 8.96083 11.3439 9.12699 11.112 9.45932C10.9229 9.71154 10.8194 10.059 10.8018 10.5018C10.7987 10.5791 10.7363 10.6418 10.659 10.6418H9.72179C9.64447 10.6418 9.58152 10.579 9.58408 10.5017C9.60986 9.72538 9.85254 9.10741 10.3121 8.64782C10.799 8.1532 11.4714 7.90588 12.3293 7.90588ZM12.1207 15.4117C12.3757 15.4117 12.5805 15.489 12.7351 15.6436C12.8974 15.7904 12.9786 15.9875 12.9786 16.2348C12.9786 16.4667 12.8935 16.6676 12.7235 16.8377C12.5535 16.9922 12.3525 17.0695 12.1207 17.0695C11.8811 17.0695 11.6802 16.9884 11.5179 16.8261C11.3556 16.6638 11.2744 16.4667 11.2744 16.2348C11.2744 15.9875 11.3556 15.7904 11.5179 15.6436C11.6724 15.489 11.8734 15.4117 12.1207 15.4117Z" fill="#B8C1BD"/>
</g>
</svg>
