<svg width="24" height="25" viewBox="0 0 24 25" fill="none" xmlns="http://www.w3.org/2000/svg">
<g id="&#229;&#133;&#179;&#230;&#156;&#186;_full">
<path id="Vector" d="M17.536 5.6875H6.86087C5.83429 5.6875 5 6.52179 5 7.54837V18.2266C5 19.2532 5.83429 20.0875 6.86087 20.0875H17.5391C18.5657 20.0875 19.4 19.2532 19.4 18.2266V7.54837C19.3969 6.52179 18.5626 5.6875 17.536 5.6875ZM11.7332 9.09599C11.7332 8.83857 11.941 8.63077 12.1984 8.63077C12.4559 8.63077 12.6637 8.83857 12.6637 9.09599V11.7229C12.6637 11.9803 12.4559 12.1881 12.1984 12.1881C11.941 12.1881 11.7332 11.9803 11.7332 11.7229V9.09599ZM12.1984 17.1411C9.99332 17.1411 8.19759 15.3454 8.19759 13.1403C8.19759 11.664 9.00706 10.3118 10.3066 9.61393C10.533 9.49297 10.8152 9.57671 10.9362 9.80311C11.0571 10.0295 10.9734 10.3118 10.747 10.4327C10.2575 10.6954 9.84837 11.0859 9.56327 11.5627C9.27817 12.0395 9.12775 12.5847 9.12802 13.1403C9.12802 14.8337 10.5051 16.2107 12.1984 16.2107C13.8918 16.2107 15.2689 14.8337 15.2689 13.1403C15.2689 12.0082 14.6486 10.9693 13.6499 10.4327C13.4235 10.3118 13.3398 10.0295 13.4607 9.80311C13.5817 9.57671 13.8639 9.49297 14.0903 9.61393C15.3929 10.3118 16.1993 11.664 16.1993 13.1403C16.1993 15.3454 14.4036 17.1411 12.1984 17.1411Z" fill="#B8C1BD"/>
</g>
</svg>
