<svg width="16" height="16" viewBox="0 0 16 16" fill="none" xmlns="http://www.w3.org/2000/svg">
<g id="&#231;&#188;&#150;&#232;&#190;&#145; (1) 2">
<rect width="16" height="16" rx="8" fill="white"/>
<g id="&#231;&#188;&#150;&#232;&#190;&#145; (2) 1" clip-path="url(#clip0_1007_16951)">
<path id="Vector" d="M7.55933 8.44141C7.6814 8.56348 7.84058 8.62402 8.00073 8.62402C8.16089 8.62402 8.32007 8.56348 8.44214 8.44141L12.1863 4.69727C12.4304 4.45312 12.4304 4.05859 12.1863 3.81445C11.9421 3.57031 11.5476 3.57031 11.3035 3.81445L7.55933 7.55859C7.31616 7.80273 7.31616 8.19727 7.55933 8.44141Z" fill="#404040"/>
<path id="Vector_2" d="M11.7451 7.37598C11.4004 7.37598 11.1211 7.65527 11.1211 8V11.1201H4.88086V4.87988H8.00098C8.3457 4.87988 8.625 4.60059 8.625 4.25586C8.625 3.91113 8.3457 3.63184 8.00098 3.63184H4.88086C4.19141 3.63184 3.63281 4.19043 3.63281 4.87988V11.1201C3.63281 11.8096 4.19141 12.3682 4.88086 12.3682H11.1211C11.8105 12.3682 12.3691 11.8096 12.3691 11.1201V8C12.3691 7.65527 12.0898 7.37598 11.7451 7.37598Z" fill="#404040"/>
</g>
</g>
<defs>
<clipPath id="clip0_1007_16951">
<rect width="10" height="10" fill="white" transform="translate(3 3)"/>
</clipPath>
</defs>
</svg>
