<svg width="24" height="25" viewBox="0 0 24 25" fill="none" xmlns="http://www.w3.org/2000/svg">
<g id="icon_&#232;&#181;&#132;&#233;&#135;&#145;">
<path id="Subtract" fill-rule="evenodd" clip-rule="evenodd" d="M12 20.6871C16.4183 20.6871 20 17.1054 20 12.6871C20 8.26886 16.4183 4.68713 12 4.68713C7.58172 4.68713 4 8.26886 4 12.6871C4 17.1054 7.58172 20.6871 12 20.6871ZM15.2326 9.05806C15.288 9.00326 15.288 8.91374 15.2326 8.85894L14.4835 8.11842C14.429 8.0645 14.3412 8.0645 14.2867 8.11842L12.0881 10.2919H11.912L9.7134 8.11842C9.65886 8.0645 9.5711 8.0645 9.51656 8.11842L8.76748 8.85894C8.71204 8.91374 8.71204 9.00326 8.76748 9.05806L10.0155 10.2919H8.1401C8.06278 10.2919 8.0001 10.3545 8.0001 10.4319V11.4852C8.0001 11.5625 8.06278 11.6252 8.1401 11.6252H11.3334V13.6252H8.1401C8.06278 13.6252 8.0001 13.6879 8.0001 13.7652V14.8186C8.0001 14.8959 8.06278 14.9586 8.1401 14.9586H11.3334V18.152C11.3334 18.2293 11.3961 18.292 11.4734 18.292H12.5268C12.6041 18.292 12.6668 18.2293 12.6668 18.152V14.9586H15.8601C15.9374 14.9586 16.0001 14.8959 16.0001 14.8186V13.7652C16.0001 13.6879 15.9374 13.6252 15.8601 13.6252H12.6668V11.6252H15.8601C15.9374 11.6252 16.0001 11.5625 16.0001 11.4852V10.4319C16.0001 10.3545 15.9374 10.2919 15.8601 10.2919H13.9845L15.2326 9.05806Z" fill="#B8C1BD"/>
</g>
</svg>
