<svg width="28" height="29" viewBox="0 0 28 29" fill="none" xmlns="http://www.w3.org/2000/svg">
<g id="&#230;&#138;&#165;&#229;&#144;&#141;&#232;&#174;&#176;&#229;&#189;&#149;">
<g id="Group 348451150">
<circle id="Ellipse 383" cx="21.5" cy="19.6872" r="4.5" fill="#51FE81"/>
<path id="Vector" d="M21.3519 25.5158C20.6284 25.5171 19.9118 25.3754 19.2432 25.0989C18.5746 24.8224 17.9672 24.4166 17.456 23.9047C15.3089 21.7564 15.3089 18.261 17.456 16.1128C19.603 13.9646 23.0996 13.9646 25.2467 16.1128C27.3937 18.261 27.3949 21.7564 25.2467 23.9035C24.7356 24.4155 24.1285 24.8215 23.4601 25.0981C22.7917 25.3748 22.0753 25.5168 21.3519 25.5158ZM21.3519 16.2781C20.4888 16.2787 19.6527 16.5786 18.9859 17.1266C18.3192 17.6746 17.863 18.4368 17.6952 19.2834C17.5274 20.13 17.6584 21.0086 18.0657 21.7695C18.4731 22.5304 19.1317 23.1265 19.9292 23.4563C20.7268 23.7861 21.6141 23.8291 22.4398 23.5781C23.2656 23.327 23.9787 22.7974 24.4578 22.0795C24.9369 21.3617 25.1522 20.4999 25.0672 19.641C24.9821 18.7821 24.6019 17.9793 23.9913 17.3694C23.6449 17.0226 23.2334 16.7477 22.7804 16.5604C22.3275 16.3732 21.842 16.2772 21.3519 16.2781Z" fill="#0D0F02"/>
<path id="Vector_2" d="M20.5741 22.5377C20.4565 22.5379 20.3401 22.5147 20.2315 22.4694C20.123 22.4241 20.0246 22.3577 19.942 22.2741L18.7645 21.0832C18.6816 21.0004 18.6159 20.9021 18.5712 20.7938C18.5265 20.6855 18.5036 20.5695 18.5039 20.4523C18.5042 20.3352 18.5277 20.2192 18.5729 20.1112C18.6182 20.0031 18.6844 19.9051 18.7677 19.8227C18.851 19.7404 18.9497 19.6753 19.0583 19.6312C19.1668 19.5871 19.283 19.565 19.4002 19.566C19.5173 19.5669 19.6331 19.5911 19.7409 19.637C19.8486 19.6829 19.9463 19.7497 20.0282 19.8335L21.2056 21.024C21.329 21.1486 21.4127 21.307 21.4462 21.4791C21.4797 21.6512 21.4616 21.8294 21.3941 21.9912C21.3266 22.153 21.2127 22.2913 21.0668 22.3885C20.9209 22.4858 20.7494 22.5377 20.5741 22.5377Z" fill="#0D0F02"/>
<path id="Vector_3" d="M20.5947 22.5235C20.4188 22.5235 20.2469 22.4712 20.1007 22.3734C19.9545 22.2756 19.8406 22.1365 19.7735 21.9739C19.7063 21.8113 19.689 21.6324 19.7236 21.46C19.7582 21.2875 19.8432 21.1292 19.9679 21.0051L22.6798 18.3062C22.8484 18.1486 23.0718 18.0627 23.3025 18.0668C23.5333 18.071 23.7534 18.1647 23.9163 18.3282C24.0792 18.4918 24.1721 18.7123 24.1753 18.9431C24.1785 19.1739 24.0917 19.3968 23.9335 19.5648L21.2218 22.2634C21.1395 22.3459 21.0418 22.4113 20.9342 22.4559C20.8266 22.5005 20.7112 22.5235 20.5947 22.5235ZM14.4792 22.5863H6.48704C5.85697 22.5863 5.25269 22.336 4.80716 21.8905C4.36163 21.4449 4.11133 20.8407 4.11133 20.2106V12.9886H23.1585V12.8998C23.1585 13.1355 23.2522 13.3615 23.4188 13.5282C23.5855 13.6948 23.8115 13.7885 24.0472 13.7885C24.2829 13.7885 24.5089 13.6948 24.6756 13.5282C24.8422 13.3615 24.9359 13.1355 24.9359 12.8998V9.97309C24.9359 9.4277 24.8284 8.88765 24.6197 8.38378C24.411 7.87991 24.1051 7.42208 23.7195 7.03643C23.3338 6.65079 22.876 6.34487 22.3721 6.13616C21.8682 5.92745 21.3282 5.82003 20.7828 5.82003H19.0706V4.59425C19.0706 4.11022 18.6909 3.70084 18.2069 3.68751C18.0881 3.68419 17.9699 3.7047 17.8592 3.74785C17.7485 3.791 17.6476 3.85591 17.5624 3.93873C17.4773 4.02155 17.4096 4.12061 17.3633 4.23005C17.3171 4.33949 17.2933 4.45709 17.2933 4.57589V5.82003H9.236V4.59425C9.236 4.11022 8.85624 3.70084 8.37221 3.68751C8.25346 3.68419 8.13524 3.7047 8.02456 3.74785C7.91387 3.791 7.81296 3.85591 7.72779 3.93873C7.64262 4.02155 7.57492 4.12061 7.52869 4.23005C7.48247 4.33949 7.45865 4.45709 7.45866 4.57589V5.82003H6.48704C5.38558 5.82003 4.32924 6.25758 3.55039 7.03643C2.77154 7.81528 2.33398 8.87163 2.33398 9.97309V20.2106C2.33398 21.312 2.77154 22.3684 3.55039 23.1472C4.32924 23.9261 5.38558 24.3636 6.48704 24.3636H14.4792C14.7149 24.3636 14.9409 24.27 15.1076 24.1034C15.2742 23.9367 15.3678 23.7107 15.3678 23.475C15.3678 23.2393 15.2742 23.0133 15.1076 22.8466C14.9409 22.6799 14.7149 22.5863 14.4792 22.5863ZM4.11133 9.97309C4.11203 9.34323 4.36256 8.73936 4.80794 8.29398C5.25332 7.8486 5.85718 7.59808 6.48704 7.59737H7.45866V8.87114C7.45866 9.10683 7.55229 9.33286 7.71895 9.49952C7.8856 9.66618 8.11164 9.75981 8.34733 9.75981C8.58302 9.75981 8.80906 9.66618 8.97572 9.49952C9.14237 9.33286 9.236 9.10683 9.236 8.87114V7.59737H17.2933V8.87114C17.2933 9.10683 17.3869 9.33286 17.5536 9.49952C17.7202 9.66618 17.9463 9.75981 18.182 9.75981C18.4177 9.75981 18.6437 9.66618 18.8104 9.49952C18.977 9.33286 19.0706 9.10683 19.0706 8.87114V7.59737H20.7828C21.4127 7.59808 22.0165 7.8486 22.4619 8.29398C22.9073 8.73936 23.1578 9.34323 23.1585 9.97309V11.2113H4.11133V9.97309Z" fill="#0D0F02"/>
</g>
</g>
</svg>
