<svg width="24" height="25" viewBox="0 0 24 25" fill="none" xmlns="http://www.w3.org/2000/svg">
<g id="icon_jibenxinxi">
<path id="Subtract" fill-rule="evenodd" clip-rule="evenodd" d="M5 6.68713C4.44772 6.68713 4 7.13485 4 7.68713V18.4871C4 19.0394 4.44772 19.4871 5 19.4871H19C19.5523 19.4871 20 19.0394 20 18.4871V7.68713C20 7.13485 19.5523 6.68713 19 6.68713H5ZM6.94675 10.2418C6.79211 10.2418 6.66675 10.3672 6.66675 10.5218V12.8063C6.66675 12.9609 6.79211 13.0863 6.94675 13.0863H10.3867C10.5414 13.0863 10.6667 12.9609 10.6667 12.8063V10.5218C10.6667 10.3672 10.5414 10.2418 10.3867 10.2418H6.94675ZM12.6669 13.0877C12.6669 12.695 12.9654 12.3766 13.3336 12.3766H16.6669C17.0351 12.3766 17.3336 12.695 17.3336 13.0877C17.3336 13.4804 17.0351 13.7988 16.6669 13.7988H13.3336C12.9654 13.7988 12.6669 13.4804 12.6669 13.0877ZM6.66686 15.2203C6.29867 15.2203 6.00019 15.5387 6.00019 15.9314C6.00019 16.3242 6.29867 16.6426 6.66686 16.6426H17.3335C17.7017 16.6426 18.0002 16.3242 18.0002 15.9314C18.0002 15.5387 17.7017 15.2203 17.3335 15.2203H6.66686Z" fill="#B8C1BD"/>
</g>
</svg>
