<svg width="18" height="18" viewBox="0 0 18 18" fill="none" xmlns="http://www.w3.org/2000/svg">
<g id="&#232;&#167;&#132;&#229;&#136;&#153;">
<path id="Vector" d="M2.63636 9.77764H5.92445C6.66984 9.77764 7.24892 10.2048 7.66171 11.0593C7.93238 11.6193 8.37848 11.8993 9 11.8993C9.62024 11.8993 10.0659 11.6199 10.337 11.0612C10.7523 10.2055 11.3319 9.77764 12.0756 9.77764H15.3636V11.0504H12.0756C11.863 11.0504 11.6651 11.2392 11.4818 11.6167C10.9791 12.6536 10.1518 13.172 9 13.172C7.84648 13.172 7.01857 12.6523 6.51626 11.6129C6.33511 11.2379 6.13784 11.0504 5.92445 11.0504H2.63636V9.77764ZM3.27273 10.414V13.2426C3.27273 14.0623 3.93773 14.7273 4.75737 14.7273H13.2426C14.0623 14.7273 14.7273 14.0623 14.7273 13.2426V10.414H16V13.2426C16 14.7655 14.7654 16 13.2426 16H4.75737C3.23455 16 2 14.7655 2 13.2426V10.414H3.27273ZM2 10.414V9.34427C2 9.04773 2.04772 8.75309 2.14126 8.47246L3.83145 3.40191C4.11081 2.56446 4.89418 2 5.77682 2H12.2232C13.1058 2 13.8892 2.56446 14.1686 3.40191L15.8587 8.47246C15.9523 8.75309 16 9.04773 16 9.34427V10.414H14.7273V9.34427C14.7273 9.18455 14.7018 9.02609 14.6509 8.87463L12.9607 3.80473C12.8551 3.48718 12.5579 3.27273 12.2232 3.27273H5.77682C5.44209 3.27273 5.14491 3.48718 5.03927 3.80473L3.34909 8.87463C3.29818 9.02609 3.27273 9.18455 3.27273 9.34427V10.414H2ZM6.87899 4.828H11.121V6.10073H6.87899V4.828ZM5.81818 7.30281H12.1818V8.57554H5.81818V7.30281Z" fill="#666666"/>
</g>
</svg>
