<?xml version="1.0" encoding="UTF-8"?>
<svg width="20px" height="18px" viewBox="0 0 20 18" version="1.1" xmlns="http://www.w3.org/2000/svg" xmlns:xlink="http://www.w3.org/1999/xlink">
    <!-- Generator: Sketch 61 (89581) - https://sketch.com -->
    <title>home</title>
    <desc>Created with Sketch.</desc>
    <g id="ðŸ’¬-å¾®ä¿¡å°ç¨‹åºè®¾è®¡è§„èŒƒ" stroke="none" stroke-width="1" fill="none" fill-rule="evenodd">
        <g id="å¯¼èˆªæ /home--æ–°åŠ icon" transform="translate(-16.000000, -62.000000)">
            <g id="ç”»æ¿-4" transform="translate(0.000000, 44.000000)">
                <g id="home" transform="translate(16.000000, 17.000000)">
                    <path d="M18.7818147,8.85961305 L11.5821507,2.59505781 C11.1414902,2.21161643 10.581952,2.00019211 10.0065841,2 L10.0056989,2 C9.43068095,2 8.87124571,2.21091197 8.43050288,2.59386236 L1.21854961,8.85931417 C0.960003538,9.08393116 0.925976737,9.48331901 1.14257083,9.75144192 C1.26342466,9.90091618 1.43660524,9.97798016 1.61104148,9.97798016 C1.74935127,9.97798016 1.88850505,9.92952164 2.00285405,9.83023504 L2.37541976,9.50648089 L2.37541976,16.2897131 C2.37541976,16.7465467 2.54695356,17.176077 2.85844393,17.4991054 C3.1699343,17.822091 3.58406088,18 4.02465962,18 L7.73940676,18 L7.73940676,17.9995944 C9.07056909,17.9995944 8.96206619,16.7334607 8.96206619,16.7334607 L8.96206617,12.4681717 C8.96206617,12.3816509 8.99459028,12.3002747 9.05364829,12.2390505 C9.11260338,12.1778262 9.19111411,12.1441828 9.27462696,12.1441828 L10.7254903,12.1441828 C10.8089826,12.1441828 10.8873698,12.1778262 10.9464484,12.2390505 C11.0054859,12.3002747 11.03801,12.3816722 11.03801,12.4681717 L11.03801,16.7334608 L11.0378041,16.7334608 C11.0378041,16.7334608 10.9293012,17.9995944 12.2604635,17.9995944 L12.2604635,18 L15.9754577,18 C16.4159123,18 16.8300801,17.8220911 17.1415705,17.4991054 C17.4531432,17.1760557 17.624677,16.7465467 17.624677,16.2897131 L17.624677,9.50596858 L17.9968516,9.82989351 C18.255233,10.0546172 18.6404378,10.019757 18.8572172,9.7517408 C19.0738936,9.48381002 19.0401756,9.08444351 18.7818147,8.85961305 Z M16.4032938,16.2896917 C16.4032938,16.4082123 16.3588305,16.5197096 16.2780348,16.6035194 C16.1972186,16.6873291 16.0898067,16.7334608 15.9754783,16.7334608 L12.2592902,16.7334608 L12.2592902,12.4681717 C12.2592902,12.0433378 12.0997368,11.6438646 11.810087,11.3434644 C11.520396,11.0430216 11.1351706,10.8775368 10.7255109,10.8775368 L9.27464756,10.8775368 C8.86488497,10.8775368 8.47963897,11.0430216 8.19003031,11.3434644 C7.90040108,11.6438432 7.7408271,12.0433165 7.7408271,12.4681717 L7.7408271,16.7334608 L4.02463904,16.7334608 C3.91031062,16.7334608 3.80289874,16.6873291 3.72208249,16.6035194 C3.64116333,16.5197096 3.5967,16.4082123 3.5967,16.2897558 L3.5967,8.44545278 L9.2146838,3.56463379 C9.43603301,3.37235806 9.71691367,3.26647512 10.0056783,3.26647512 L10.00609,3.26647512 C10.2949371,3.26647512 10.5759412,3.3727423 10.7971875,3.5652315 L16.4032938,8.44333937 L16.4032938,16.2896917 Z" id="å½¢çŠ¶" stroke="#272636" stroke-width="0.4" fill="#272636" fill-rule="nonzero"></path>
                    <path d="M0,0 L20,0 L20,20 L0,20 L0,0 Z" id="è·¯å¾„" stroke="#FFFFFF" opacity="0" stroke-dasharray="0,0"></path>
                </g>
            </g>
        </g>
    </g>
</svg>