<svg width="24" height="24" viewBox="0 0 24 24" fill="none" xmlns="http://www.w3.org/2000/svg">
<g id="&#229;&#183;&#165;&#228;&#189;&#156;&#230;&#137;&#139;&#231;&#142;&#175;">
<path id="Vector" d="M15.6673 15.1566C15.6673 15.4335 15.5452 15.6991 15.3278 15.895C15.2201 15.992 15.0922 16.0689 14.9515 16.1214C14.8107 16.1739 14.6599 16.2009 14.5075 16.2009H9.49445C8.85388 16.2009 8.33446 15.7336 8.33427 15.1571V8.84481C8.33427 8.26883 8.85368 7.80101 9.49445 7.80101H14.5075C15.1481 7.80101 15.6675 8.26812 15.6677 8.84481V15.1569L15.6673 15.1566ZM16.2981 7.04158C15.8733 6.71532 15.6681 6.21375 15.6681 5.71146V4.20143C15.6681 3.88313 15.5275 3.57791 15.2775 3.35275C15.0275 3.1277 14.6883 3.00125 14.3347 3.00122H9.66765C9.31398 3.00122 8.97484 3.12759 8.72466 3.35275C8.47463 3.57787 8.33414 3.88313 8.33407 4.20143V5.71129C8.33407 6.21322 8.12886 6.7155 7.7041 7.0414C7.48339 7.20925 7.30607 7.41846 7.18454 7.6544C7.06301 7.89035 7.0002 8.14733 7.00049 8.40739V15.5951C7.00049 16.1435 7.27384 16.6318 7.7041 16.9614C8.12886 17.2864 8.33407 17.7896 8.33407 18.2915V19.8014C8.33427 20.4641 8.93125 21.0012 9.66765 21.0012H14.3341C14.5092 21.0012 14.6826 20.9702 14.8444 20.9099C15.0061 20.8496 15.1531 20.7612 15.2769 20.6497C15.4008 20.5383 15.499 20.406 15.566 20.2604C15.633 20.1148 15.6675 19.9588 15.6675 19.8012V18.2917C15.6675 17.7898 15.8727 17.2866 16.2975 16.9616C16.518 16.7936 16.6952 16.5844 16.8166 16.3484C16.938 16.1125 17.0008 15.8556 17.0005 15.5956V8.40668C17.0013 7.88036 16.744 7.38055 16.2975 7.04069L16.2981 7.04158Z" fill="#50FE82"/>
</g>
</svg>
