<svg width="24" height="24" viewBox="0 0 24 24" fill="none" xmlns="http://www.w3.org/2000/svg">
<g id="&#229;&#183;&#165;&#228;&#189;&#156;&#233;&#169;&#172;&#231;&#148;&#178;">
<path id="Vector" d="M9.50335 4.00549C9.66907 3.97986 9.79681 4.04394 9.88658 4.19774C9.97634 4.35153 10.0765 4.51815 10.1869 4.69758C10.2284 4.78729 10.3492 4.95711 10.5495 5.20703C10.7497 5.45695 10.9638 5.72289 11.1916 6.00485C11.4195 6.28681 11.6336 6.54954 11.8338 6.79305C12.0341 7.03656 12.1549 7.19677 12.1963 7.27367C12.3068 7.44028 12.3689 7.57165 12.3828 7.66777C12.3966 7.76389 12.3137 7.80555 12.1342 7.79273C12.0513 7.77991 11.9443 7.78953 11.8131 7.82157C11.6819 7.85361 11.5507 7.89526 11.4195 7.94653C11.2883 7.99779 11.164 8.05867 11.0466 8.12916C10.9292 8.19965 10.8429 8.26053 10.7877 8.31179C10.7186 8.38869 10.653 8.42394 10.5909 8.41753C10.5287 8.41112 10.4701 8.37587 10.4148 8.31179C10.3596 8.24771 10.3078 8.16761 10.2595 8.07149C10.2111 7.97536 10.18 7.87604 10.1662 7.77351C10.1386 7.64534 10.0903 7.4595 10.0212 7.21599C9.95217 6.97248 9.87622 6.71295 9.79336 6.4374C9.7105 6.16185 9.63454 5.8895 9.56549 5.62036C9.49644 5.35121 9.4412 5.12693 9.39977 4.9475C9.33072 4.62709 9.30655 4.39639 9.32727 4.25541C9.34798 4.11443 9.40668 4.03113 9.50335 4.00549ZM15.5107 4.00549C15.6074 4.03113 15.6661 4.11443 15.6868 4.25541C15.7075 4.39639 15.6834 4.62709 15.6143 4.9475C15.5729 5.12693 15.5177 5.35121 15.4486 5.62036C15.3796 5.8895 15.3036 6.16185 15.2207 6.4374C15.1379 6.71295 15.0619 6.97248 14.9929 7.21599C14.9238 7.4595 14.8755 7.64534 14.8479 7.77351C14.8202 7.87604 14.7857 7.97536 14.7443 8.07149C14.7029 8.16761 14.6545 8.24771 14.5993 8.31179C14.544 8.37587 14.4819 8.41112 14.4128 8.41753C14.3438 8.42394 14.2747 8.38869 14.2057 8.31179C14.1643 8.26053 14.0849 8.19965 13.9675 8.12916C13.8501 8.05867 13.7223 7.99779 13.5842 7.94653C13.4461 7.89526 13.3149 7.85361 13.1906 7.82157C13.0664 7.78953 12.9628 7.77991 12.8799 7.79273C12.7004 7.80555 12.6175 7.76389 12.6313 7.66777C12.6451 7.57165 12.7004 7.44028 12.7971 7.27367C12.8523 7.19677 12.9766 7.03656 13.1699 6.79305C13.3633 6.54954 13.5739 6.28681 13.8017 6.00485C14.0296 5.72289 14.2437 5.45695 14.4439 5.20703C14.6442 4.95711 14.7719 4.78729 14.8271 4.69758C14.9376 4.51815 15.0377 4.35153 15.1275 4.19774C15.2173 4.04394 15.345 3.97986 15.5107 4.00549ZM12.0099 11.6761H12.9628L12.9835 8.96543H13.1699C13.239 8.96543 13.308 8.96222 13.3771 8.95582C13.4461 8.94941 13.5359 8.9462 13.6464 8.9462C13.7431 8.9462 13.8466 8.97824 13.9571 9.04233L14.2886 9.19612C14.399 9.2602 14.5061 9.31467 14.6096 9.35953C14.7132 9.40439 14.8064 9.42041 14.8893 9.40759C14.9722 9.40759 15.0619 9.3371 15.1586 9.19612C15.2553 9.05514 15.3554 8.88212 15.459 8.67706C15.5625 8.472 15.6592 8.25732 15.749 8.03304C15.8387 7.80875 15.9251 7.6133 16.0079 7.44669C16.077 7.28007 16.146 7.08142 16.2151 6.85073C16.2841 6.62003 16.3394 6.39575 16.3808 6.17787C16.436 5.93436 16.4775 5.67803 16.5051 5.40889L17.2508 5.52423C17.458 5.56268 17.672 5.60113 17.893 5.63958C18.114 5.67803 18.3004 5.71007 18.4523 5.7357C18.5904 5.77415 18.7147 5.80619 18.8252 5.83183C18.9357 5.85746 19.0392 5.89911 19.1359 5.95678C19.2326 6.01446 19.3327 6.08815 19.4363 6.17787C19.5398 6.26758 19.6607 6.38934 19.7988 6.54313C19.9369 6.69693 20.1095 6.92442 20.3167 7.22561C20.5238 7.52679 20.7344 7.844 20.9485 8.17722C21.1625 8.51045 21.3593 8.82445 21.5389 9.11922C21.7184 9.414 21.8427 9.63188 21.9117 9.77286C22.0084 9.95229 22.0257 10.0676 21.9635 10.1189C21.9014 10.1702 21.8358 10.2214 21.7667 10.2727C21.6839 10.324 21.5458 10.4105 21.3524 10.5322C21.1591 10.654 20.945 10.7854 20.7103 10.9263C20.4755 11.0673 20.2407 11.1987 20.0059 11.3204C19.7712 11.4422 19.5778 11.5287 19.4259 11.58C19.274 11.6312 19.1739 11.6473 19.1255 11.628C19.0772 11.6088 19.0323 11.5672 18.9909 11.5031C18.9633 11.4646 18.908 11.3909 18.8252 11.282C18.7423 11.173 18.6525 11.0577 18.5559 10.9359C18.4592 10.8142 18.3694 10.6988 18.2866 10.5899C18.2037 10.481 18.1485 10.4137 18.1209 10.388C18.0656 10.324 17.9966 10.3208 17.9137 10.3784C17.8308 10.4361 17.7894 10.5675 17.7894 10.7725C17.7894 10.8751 17.786 11.0513 17.7791 11.3012C17.7722 11.5511 17.7687 11.8619 17.7687 12.2336V13.4447V14.8481C17.7687 16.1682 17.7514 17.2256 17.7169 18.0202C17.6824 18.8148 17.6513 19.4364 17.6237 19.885C17.5823 20.3976 17.5408 20.7693 17.4994 21H7.47326C7.43183 20.6283 7.3904 20.2182 7.34897 19.7696C7.32135 19.3851 7.29027 18.9302 7.25575 18.4047C7.22122 17.8792 7.21087 17.3089 7.22468 16.6937V15.175C7.22468 14.6495 7.22122 14.1497 7.21432 13.6754C7.20741 13.2012 7.20051 12.7815 7.1936 12.4162C7.1867 12.051 7.18325 11.7786 7.18325 11.5992V10.7341C7.18325 10.5162 7.1211 10.3945 6.99681 10.3688C6.92776 10.356 6.86216 10.3752 6.80002 10.4265C6.73787 10.4778 6.67227 10.5482 6.60322 10.638C6.53417 10.7277 6.46857 10.8238 6.40643 10.9263C6.34428 11.0289 6.28559 11.1186 6.23035 11.1955C6.11987 11.3365 6.03355 11.439 5.97141 11.5031C5.90926 11.5672 5.85748 11.6056 5.81605 11.6184C5.77461 11.6312 5.74009 11.6312 5.71247 11.6184L5.54675 11.5607C5.36722 11.5095 5.15661 11.423 4.91493 11.3012C4.67326 11.1795 4.43849 11.0513 4.21062 10.9167C3.98275 10.7821 3.78251 10.6572 3.60988 10.5418C3.43725 10.4265 3.32332 10.3496 3.26808 10.3111C3.1576 10.2471 3.07819 10.1958 3.02985 10.1573C2.98152 10.1189 2.99188 9.99715 3.06093 9.79208C3.10236 9.68955 3.19558 9.51012 3.34058 9.2538C3.48559 8.99747 3.65821 8.71871 3.85846 8.41753C4.05871 8.11634 4.26241 7.81516 4.46956 7.51397C4.67671 7.21279 4.86315 6.95326 5.02887 6.73538C5.26364 6.41497 5.49496 6.18428 5.72283 6.0433C5.95069 5.90232 6.22344 5.79978 6.54108 5.7357C6.69299 5.71007 6.88288 5.68123 7.11074 5.64919C7.33861 5.61715 7.54921 5.58191 7.74256 5.54346C7.97733 5.49219 8.21901 5.44733 8.46759 5.40889C8.52283 5.67803 8.57807 5.93436 8.63331 6.17787C8.68855 6.39575 8.74034 6.61683 8.78867 6.84111C8.83701 7.0654 8.8888 7.24803 8.94404 7.38901C8.98547 7.52999 9.05452 7.70622 9.15119 7.91769C9.24786 8.12916 9.34798 8.33743 9.45156 8.54249C9.55513 8.74755 9.65871 8.93018 9.76229 9.09039C9.86586 9.25059 9.95217 9.34992 10.0212 9.38837C10.1593 9.45245 10.3181 9.42041 10.4977 9.29225C10.6772 9.16408 10.8844 9.06796 11.1191 9.00388C11.2296 8.97824 11.3401 8.96222 11.4506 8.95582C11.5611 8.94941 11.6577 8.9462 11.7406 8.9462C11.8373 8.95902 11.927 8.97184 12.0099 8.98465V11.6761Z" fill="#50FE82"/>
</g>
</svg>
