<svg width="24" height="24" viewBox="0 0 24 24" fill="none" xmlns="http://www.w3.org/2000/svg">
<g id="icon-&#228;&#191;&#157;&#233;&#153;&#169;">
<path id="Subtract" fill-rule="evenodd" clip-rule="evenodd" d="M10.1872 20.513C11.0135 21.1623 12.1767 21.1623 13.003 20.513L18.0294 16.5628C18.7623 15.9869 19.1902 15.1063 19.1902 14.1742V7.78741C19.1902 7.1534 18.7965 6.58608 18.2025 6.36433L12.1264 4.09594C11.7838 3.96802 11.4065 3.96802 11.0638 4.09594L4.98774 6.36433C4.39377 6.58608 4 7.1534 4 7.78741V14.1742C4 15.1063 4.42792 15.9869 5.16082 16.5628L10.1872 20.513ZM12.1749 8.23993L7.9336 11.9171C7.66801 12.1474 7.83086 12.5838 8.18236 12.5838H10.4098C10.6196 12.5838 10.7896 12.7538 10.7896 12.9635V16.9047C10.7896 17.2431 11.1987 17.4125 11.4379 17.1732L15.3776 13.232C15.6168 12.9928 15.4473 12.5838 15.109 12.5838H13.1832C12.9735 12.5838 12.8034 12.4138 12.8034 12.204V8.52686C12.8034 8.20141 12.4208 8.02673 12.1749 8.23993Z" fill="#51FE81"/>
</g>
</svg>
