<svg width="24" height="24" viewBox="0 0 24 24" fill="none" xmlns="http://www.w3.org/2000/svg">
<g id="icon-&#233;&#164;&#144;&#233;&#163;&#159;&#232;&#161;&#165;&#232;&#180;&#180;">
<path id="Vector" d="M19.9779 13.8508H19.9353C19.5186 10.4996 17.1291 7.76119 13.965 6.83397C13.99 6.69498 14.0038 6.55203 14.0038 6.40587C14.0038 5.07729 12.9267 4.00024 11.5981 4.00024C10.2696 4.00024 9.19258 5.07729 9.19258 6.40587C9.19258 6.55203 9.20631 6.69498 9.23134 6.83397C6.06723 7.76119 3.67776 10.4996 3.26103 13.8508H3.21847C2.54828 13.8508 2 14.399 2 15.0692V15.0895C2 15.7596 2.54828 16.308 3.21847 16.308H19.9779C20.648 16.308 21.1964 15.7596 21.1964 15.0895V15.0692C21.1963 14.3991 20.648 13.8508 19.9779 13.8508ZM10.4661 10.3287C9.20146 10.6364 8.11054 11.4677 7.47303 12.6095C7.36652 12.8003 7.16851 12.9078 6.96453 12.9078C6.86539 12.9078 6.76792 12.8824 6.68143 12.8339C6.40081 12.6773 6.3004 12.3228 6.45703 12.0423C7.2518 10.6187 8.61277 9.58205 10.191 9.19804C10.503 9.12198 10.8179 9.31356 10.8939 9.62581C10.9698 9.938 10.7783 10.2527 10.4661 10.3287ZM12.827 6.58507C12.4258 6.52623 12.0156 6.49536 11.5981 6.49536C11.1807 6.49536 10.7705 6.52623 10.3693 6.58507C10.3606 6.52572 10.3563 6.46584 10.3562 6.40587C10.3562 5.72107 10.9134 5.16388 11.5981 5.16388C12.2829 5.16388 12.8401 5.72107 12.8401 6.40587C12.8401 6.46672 12.8355 6.52653 12.827 6.58507ZM19.9779 17.5431H3.21843C2.54829 17.5431 2 18.0914 2 18.7615V18.7818C2 19.452 2.54831 20.0002 3.21843 20.0002H19.9779C20.648 20.0002 21.1963 19.452 21.1963 18.7818V18.7615C21.1963 18.0914 20.648 17.5431 19.9779 17.5431Z" fill="#50FE82"/>
</g>
</svg>
