<svg width="24" height="24" viewBox="0 0 24 24" fill="none" xmlns="http://www.w3.org/2000/svg">
<g id="&#229;&#183;&#165;&#232;&#181;&#132; ">
<path id="Vector" d="M21 8.73368H3V7.46132C3 6.10206 4.00714 5 5.25 5H18.75C19.9929 5 21 6.10206 21 7.46176V8.73368ZM21 10.4V17.5382C21 18.8979 19.9929 20 18.75 20H5.25C4.00714 20 3 18.8979 3 17.5382V10.4H21ZM4.42114 12.0001V14.6666H10.1057V12.0001H4.42114ZM19.4919 13.0351C19.6659 12.5225 19.5223 12.2666 19.0616 12.2666H18.2657L17.0764 14.4637L16.9431 14.8449H16.9273L16.8724 14.446C16.7121 13.9431 16.5639 13.4357 16.4267 12.924C16.3101 12.4854 16.0521 12.2666 15.6523 12.2666H14.5337L15.5104 14.8885H14.706C14.589 15.6271 14.7257 15.9963 15.1161 15.9963H15.9274L16.014 16.235L15.9823 16.5187L14.5157 16.52C14.2916 17.2929 14.4797 17.6794 15.0806 17.6794H15.8327C15.8216 17.8021 15.8087 17.9291 15.7916 18.0628C15.7281 18.5829 16.2707 18.5829 16.5184 18.5829H17.2024L17.3126 17.6794H18.6823C18.8237 16.9065 18.6853 16.52 18.2657 16.52C17.8457 16.52 17.5757 16.52 17.4544 16.5187L17.4939 16.2266L17.6434 15.9963H18.8949C19.026 15.2622 18.906 14.8899 18.5344 14.8801C18.4684 14.8785 18.4024 14.8785 18.3364 14.8801L19.4923 13.0351H19.4919Z" fill="#50FE82"/>
</g>
</svg>
