<svg width="36" height="20" viewBox="0 0 36 20" fill="none" xmlns="http://www.w3.org/2000/svg">
<g id="icon_gonggao">
<rect width="36" height="20" rx="4" fill="#51FE81"/>
<g id="&#229;&#133;&#172;&#229;&#145;&#138;">
<path id="Vector" d="M30.8042 8.51852V10.2116H20.1296V9.07407L18.7539 8.98148C19.3536 7.8351 19.7857 6.52998 20.0502 5.06614L22.2989 5.19841C22.2548 5.44533 22.2019 5.6746 22.1402 5.88624H23.9523V5H27.1137V5.88624H30.3941V7.75132H27.1137V8.51852H30.8042ZM21.5846 7.75132L21.2804 8.51852H23.9523V7.75132H21.5846ZM30.6587 15H20.1296V10.6614H30.6587V15ZM27.6031 12.1032H23.1983V12.7513H27.6031V12.1032Z" fill="#0D0F02"/>
<path id="Vector_2" d="M11.2408 7.05026C10.4559 7.89683 9.70638 8.59788 8.9921 9.15344C8.28663 9.70899 7.43566 10.2601 6.43919 10.8069L5.1958 8.24074C5.75136 7.96737 6.48769 7.5 7.4048 6.83862C8.3219 6.16843 9.08469 5.55556 9.69316 5L11.2408 7.05026ZM16.1614 10.8069L12.0477 7.12963L13.8069 5.19841L17.9207 8.84921L16.1614 10.8069ZM13.5556 11.6931L16.7699 11.4947V15H6.9286L6.90215 14.6958L6.22755 12.5794L10.672 8.78307L12.6429 10.5291L9.49474 13.0159H13.7408L13.5556 11.6931Z" fill="#0D0F02"/>
</g>
</g>
</svg>
