<svg width="75" height="16" viewBox="0 0 75 16" fill="none" xmlns="http://www.w3.org/2000/svg">
<g id="&#230;&#180;&#187;&#229;&#138;&#168;&#228;&#191;&#157;&#233;&#154;&#156;">
<g id="&#230;&#180;&#187;&#229;&#138;&#168;">
<path id="Vector" d="M36.1191 2.94703V15.639H31.6351C31.8885 14.5624 32.1228 13.188 32.3381 11.516C32.5535 9.83136 32.7118 8.21003 32.8131 6.65203H31.9581C31.7175 8.40003 31.4008 10.1164 31.0081 11.801C30.6281 13.4857 30.2355 14.8854 29.8301 16C29.7541 15.962 28.7028 15.791 26.6761 15.487C27.1955 13.8784 27.6451 12.3837 28.0251 11.003C28.4178 9.62236 28.7408 8.17203 28.9941 6.65203H27.4551V2.94703H29.4501C29.4881 2.27569 29.5071 1.61069 29.5071 0.952026H32.4331C32.4331 1.66136 32.4078 2.32636 32.3571 2.94703H36.1191ZM26.6381 5.13203H19.1901V1.76903H26.6381V5.13203ZM23.8831 10.49L26.5241 10.186V15.449L19.9501 15.487V15.449L18.8481 13.188L20.7481 9.27403H18.8481V6.29103H26.9801V9.27403H23.6741L22.0211 12.01H23.9781L23.8831 10.49Z" fill="#51FE81"/>
<path id="Vector_2" d="M4.921 6.15797L0.494 4.21997L1.786 1.14197L6.194 3.07997L4.921 6.15797ZM13.547 7.44997V8.39997H16.701V15.487H6.555V8.39997H9.69V7.44997H6.251V6.00597H9.69V5.03697C8.702 5.0623 8.01167 5.07497 7.619 5.07497C7.11233 5.07497 6.75767 5.06863 6.555 5.05597L6.194 1.76897C6.422 1.78163 6.80833 1.78797 7.353 1.78797C8.67033 1.78797 10.2283 1.73097 12.027 1.61697C13.8257 1.4903 15.3457 1.35097 16.587 1.19897L16.929 4.48597C15.7637 4.61264 14.6363 4.71397 13.547 4.78997V6.00597H16.986V7.44997H13.547ZM4.693 9.99597L6.384 12.428C5.13 13.796 3.724 14.9296 2.166 15.829L0 12.732C1.16533 12.01 2.36233 11.079 3.591 9.93897L0.285 8.47597L1.558 5.37897L5.814 7.25997L4.693 9.99597ZM12.92 10.965H10.317V12.466H12.92V10.965Z" fill="#51FE81"/>
</g>
<g id="&#228;&#191;&#157;&#233;&#154;&#156;">
<path id="Vector_3" d="M74.9102 4.58103H73.0862L73.9602 5.13203C73.6182 5.51203 73.3965 5.7527 73.2952 5.85403H74.9102V7.77303H64.8592V5.85403H66.6832L65.9422 5.07503L66.7972 4.58103H64.8592V2.11103H67.9562L67.3672 1.23703L71.0152 1.00903L71.7372 2.11103H74.9102V4.58103ZM64.0992 13.017H61.2872V15.962H58.2282V5.64503H61.2872V10.547H62.8642L61.3822 7.60203L62.3702 4.99903H58.0762V1.86403H63.9852L64.6692 4.84703L63.4722 7.39303L65.0492 10.623L64.0992 13.017ZM70.3312 5.85403C70.7492 5.5627 71.2178 5.13837 71.7372 4.58103H68.2982L69.5142 5.85403H70.3312ZM71.8132 13.359H74.7392V14.974H71.8132V15.943H68.0702V14.974H65.0302V13.359H68.0702V12.618H65.2392V8.24803H74.5872V12.618H71.8132V13.359ZM68.8112 9.17903V9.82503H71.0722V9.17903H68.8112ZM68.8112 11.231H71.0722V10.623H68.8112V11.231Z" fill="black"/>
<path id="Vector_4" d="M44.8522 4.20101C44.1302 4.92301 43.2942 5.66401 42.3442 6.42401H43.9592V15.544H40.3492V7.86801C40.1592 7.98201 39.9566 8.09601 39.7412 8.21001L37.5942 5.18901C38.2656 4.87234 39.1206 4.30234 40.1592 3.47901C41.1979 2.64301 42.0529 1.87034 42.7242 1.16101L44.8522 4.20101ZM56.1762 15.658L52.4902 13.207V15.582H48.7092V13.15C48.3039 13.6693 47.8669 14.176 47.3982 14.67C46.9422 15.1767 46.5559 15.5503 46.2392 15.791L44.3012 13.739C44.6052 13.511 44.9726 13.1817 45.4032 12.751C45.8339 12.3077 46.2266 11.858 46.5812 11.402H44.7952V8.97001H48.7092V8.05801H45.2132V1.59801H56.0812V8.05801H52.4902V8.97001H56.4802V11.402H54.6182L57.3732 13.245L56.1762 15.658ZM48.9182 5.64501H52.7752V4.52401H48.9182V5.64501ZM48.7092 12.048V11.402H48.1012L48.7092 12.048ZM52.4902 12.542L53.0602 11.402H52.4902V12.542Z" fill="black"/>
</g>
</g>
</svg>
