<svg width="24" height="24" viewBox="0 0 24 24" fill="none" xmlns="http://www.w3.org/2000/svg">
<g id="&#233;&#165;&#174;&#231;&#148;&#168;&#230;&#176;&#180;">
<g id="Group 348451234">
<path id="Vector" d="M6.03242 3.0018C5.88793 3.00178 5.74505 3.0312 5.61302 3.08815C5.481 3.1451 5.36278 3.22831 5.26602 3.33239C5.16926 3.43647 5.09611 3.55911 5.05132 3.69235C5.00653 3.8256 4.99109 3.96648 5.006 4.10588L6.67663 19.7382L6.89854 19.9244C7.10789 20.1048 8.32931 21.0012 12.0002 21.0012C15.6728 21.0012 16.8948 20.1072 17.1024 19.9267L17.3249 19.7376L18.9949 4.1053C19.0099 3.96583 18.9945 3.82486 18.9497 3.69154C18.9049 3.55821 18.8318 3.43552 18.7349 3.3314C18.6381 3.22729 18.5197 3.1441 18.3876 3.08721C18.2555 3.03033 18.1125 3.00103 17.9679 3.00122H6.03242V3.0018ZM15.8684 18.923C15.4234 19.1284 14.2881 19.5119 12.0008 19.5119C9.69967 19.5119 8.56558 19.1238 8.13492 18.9259L6.70953 5.58127C6.69452 5.4418 6.70991 5.30083 6.7547 5.16751C6.79949 5.03419 6.87269 4.91149 6.96953 4.80738C7.06638 4.70326 7.18471 4.62007 7.31685 4.56318C7.44899 4.5063 7.59198 4.477 7.73655 4.47719H16.2662C16.4107 4.47699 16.5537 4.50629 16.6858 4.56318C16.8179 4.62007 16.9362 4.70328 17.033 4.8074C17.1298 4.91152 17.2029 5.03423 17.2477 5.16755C17.2924 5.30088 17.3077 5.44183 17.2926 5.58127L15.8684 18.923Z" fill="#50FE82"/>
<path id="Vector_2" d="M8.65332 9.13769L9.49252 17.787C9.49252 17.787 10.3772 18.2523 11.8492 18.2523C13.3243 18.2523 14.6575 17.787 14.6575 17.787L15.4561 9.5473C15.1761 9.56064 14.8944 9.57979 14.6187 9.57457C12.8212 9.5386 10.6141 9.05009 8.65332 9.13769Z" fill="#50FE82"/>
</g>
</g>
</svg>
