<svg width="12" height="12" viewBox="0 0 12 12" fill="none" xmlns="http://www.w3.org/2000/svg">
<g id="&#229;&#136;&#160;&#233;&#153;&#164;" clip-path="url(#clip0_599_7823)">
<path id="Vector" d="M8.33647 11.9509H3.07059C2.18118 11.9509 1.41176 10.94 1.41176 10.0534V2.33392H0.437647C0.162353 2.30145 0 2.15604 0 1.93298C0 1.70921 0.162353 1.5638 0.437647 1.53274H3.22588V1.01745C3.22588 0.476035 3.64941 0.0306236 4.24235 0.000976562H7.75765C8.35059 0.0306236 8.78118 0.476035 8.78118 1.01745V1.53274H11.5553C11.8024 1.53274 12 1.68521 12 1.92804C12 2.17086 11.8024 2.32474 11.5553 2.32474H10.5176V10.0534C10.5176 10.9393 9.23294 11.9509 8.33647 11.9509ZM9.88235 2.32474H2.06118V10.0534C2.06118 10.4544 2.66824 11.2944 3.07059 11.2944H8.33647C8.78118 11.2549 9.88235 10.4304 9.88235 10.0534V2.32404V2.32474ZM6 9.46474C6.24 9.46474 6.43765 9.26921 6.43765 9.02568V4.3598C6.43765 4.2436 6.39158 4.13214 6.30955 4.04984C6.22751 3.96754 6.1162 3.92112 6 3.92074C5.75294 3.92074 5.55529 4.11627 5.55529 4.3598V9.02568C5.55529 9.26921 5.75294 9.46474 6 9.46474ZM3.94588 9.46474C4.18588 9.46474 4.38353 9.26921 4.38353 9.02568V4.3598C4.38353 4.2436 4.33747 4.13214 4.25543 4.04984C4.1734 3.96754 4.06208 3.92112 3.94588 3.92074C3.69882 3.92074 3.50118 4.11627 3.50118 4.3598V9.02568C3.51529 9.26921 3.71294 9.46474 3.94588 9.46474ZM8.04706 9.46474C8.29412 9.46474 8.49177 9.26921 8.49177 9.02568V4.3598C8.49158 4.30172 8.47991 4.24424 8.45743 4.19069C8.43495 4.13714 8.40209 4.08856 8.36076 4.04775C8.31943 4.00694 8.27043 3.97471 8.21659 3.95291C8.16276 3.93112 8.10514 3.92018 8.04706 3.92074C7.80706 3.92074 7.60941 4.11627 7.60941 4.3598V9.02568C7.60941 9.26921 7.80706 9.46474 8.04706 9.46474ZM8.04 1.54968V1.01745C8.04 0.836741 7.99059 0.681447 7.75765 0.681447H4.24235C4.02353 0.681447 3.98118 0.7958 3.98118 1.01745V1.54968H8.04Z" fill="#666666"/>
</g>
<defs>
<clipPath id="clip0_599_7823">
<rect width="12" height="12" fill="white"/>
</clipPath>
</defs>
</svg>
