<svg width="22" height="22" viewBox="0 0 22 22" fill="none" xmlns="http://www.w3.org/2000/svg">
<g id="&#231;&#130;&#185;&#232;&#181;&#158;-&#228;&#184;&#138;&#232;&#137;&#178;">
<path id="Union" fill-rule="evenodd" clip-rule="evenodd" d="M6.3074 20H16.692C18.0795 20 18.9 19.2718 19.1535 17.8153L20.5114 9.99424C20.5886 9.55024 20.4908 9.15688 20.2178 8.81413C19.9598 8.49013 19.6339 8.32812 19.2401 8.32812H15.7819C14.6171 8.32812 13.8705 7.75587 13.542 6.61137L12.2449 2.08662C12.2284 2.02887 12.2029 2 12.1684 2H10.7036C10.2086 2 9.83628 2.23249 9.58653 2.69749C9.35778 3.12349 8.9764 3.76888 8.4424 4.63363C7.29865 6.48838 6.61127 7.86088 6.38027 8.75113C5.96402 10.3554 5.88751 13.1488 6.15076 17.1313C6.18283 17.6157 6.20892 17.9861 6.22993 18.2845C6.28804 19.1094 6.3074 19.3842 6.3074 20ZM3.25 9.59351C2.00687 9.59351 1 10.6004 1 11.8435V17.7498C1 18.9929 2.00687 19.9998 3.25 19.9998H4.77107C4.73738 18.3157 4.69788 16.7775 4.66327 15.4294C4.5783 12.1203 4.52275 9.95684 4.65468 9.59351H3.25Z" fill="#41CC68"/>
</g>
</svg>
