<svg width="22" height="22" viewBox="0 0 22 22" fill="none" xmlns="http://www.w3.org/2000/svg">
<g id="icon_dianzan">
<path id="Vector" d="M6.76074 20.1667H4.58366C2.55874 20.1667 0.916992 18.525 0.916992 16.5V11.6875C0.916992 9.66262 2.55874 8.02087 4.58366 8.02087H6.8295V9.85421H4.58366C3.57074 9.85421 2.75033 10.6746 2.75033 11.6875V16.5C2.75033 17.513 3.57074 18.3334 4.58366 18.3334H6.76074V20.1667ZM6.76074 18.3334H16.119C17.2496 18.3334 17.9181 17.74 18.1247 16.5532L19.2311 10.1805C19.294 9.81875 19.2143 9.49824 18.9918 9.21896C18.7816 8.95496 18.5161 8.82296 18.1952 8.82296H15.3774C14.4283 8.82296 13.82 8.35668 13.5523 7.42412L12.4954 3.73729C12.482 3.69023 12.4612 3.66671 12.4331 3.66671H11.2396C10.8362 3.66671 10.5328 3.85615 10.3293 4.23504C10.1429 4.58215 9.83219 5.10802 9.39708 5.81263C8.46514 7.3239 7.90505 8.44224 7.71683 9.16763L5.94215 8.70745C6.17682 7.80362 6.80842 6.51783 7.83692 4.85011C8.25247 4.17667 8.54489 3.68229 8.71417 3.36696C9.26417 2.34457 10.106 1.83337 11.2396 1.83337H12.4331C13.3821 1.83337 13.9905 2.29965 14.2581 3.23221L15.3151 6.91904C15.3285 6.9661 15.3493 6.98962 15.3774 6.98962H18.1952C19.1046 6.98962 19.848 7.35171 20.4255 8.07587C20.9908 8.78476 21.1949 9.59113 21.0378 10.495L19.9305 16.8667C19.5486 19.0667 18.2781 20.1667 16.119 20.1667H6.76074V18.3334ZM5.84408 19.25C5.84408 18.6072 5.7964 17.5628 5.70107 16.1169C5.47313 12.6757 5.55349 10.2059 5.94215 8.70745L7.71683 9.16763C7.37766 10.4748 7.31532 12.7509 7.52982 15.9959C7.6282 17.4821 7.67741 18.5668 7.67741 19.25H5.84408Z" fill="#666666"/>
</g>
</svg>
