<svg width="22" height="22" viewBox="0 0 22 22" fill="none" xmlns="http://www.w3.org/2000/svg">
<g id="icon_zhuanfa">
<path id="Vector" d="M9.16634 2.75004C9.16634 3.2563 8.75594 3.66671 8.24967 3.66671H6.41634C4.89742 3.66671 3.66634 4.89779 3.66634 6.41671V15.5834C3.66634 17.1023 4.89742 18.3334 6.41634 18.3334H15.583C17.1019 18.3334 18.333 17.1023 18.333 15.5834V13.75C18.333 13.2438 18.7434 12.8334 19.2497 12.8334C19.7559 12.8334 20.1663 13.2438 20.1663 13.75V15.5834C20.1663 18.1143 18.1139 20.1667 15.583 20.1667H6.41634C3.88542 20.1667 1.83301 18.1143 1.83301 15.5834V6.41671C1.83301 3.88579 3.88542 1.83337 6.41634 1.83337H8.24967C8.75594 1.83337 9.16634 2.24378 9.16634 2.75004ZM19.2497 3.66671H14.8625C14.3562 3.66671 13.9458 3.2563 13.9458 2.75004C13.9458 2.24378 14.3562 1.83337 14.8625 1.83337H19.2497V3.66671ZM20.1663 2.75004V7.13722C20.1663 7.64348 19.7559 8.05388 19.2497 8.05388C18.7434 8.05388 18.333 7.64348 18.333 7.13722V2.75004H20.1663ZM19.8978 3.39812L13.2125 10.0834C12.8546 10.4413 12.2743 10.4413 11.9163 10.0834C11.5584 9.72545 11.5584 9.14513 11.9163 8.78721L18.6016 2.10196L19.8978 3.39812ZM20.1663 2.75004H19.2497V1.83337C19.7559 1.83337 20.1663 2.24378 20.1663 2.75004Z" fill="#666666"/>
</g>
</svg>
