<svg width="16" height="16" viewBox="0 0 16 16" fill="none" xmlns="http://www.w3.org/2000/svg">
<g id="&#232;&#189;&#172;&#229;&#143;&#145; 2">
<path id="Vector" d="M6.66634 2.00004C6.66634 2.36823 6.36786 2.66671 5.99967 2.66671H4.66634C3.56167 2.66671 2.66634 3.56204 2.66634 4.66671V11.3334C2.66634 12.438 3.56167 13.3334 4.66634 13.3334H11.333C12.4377 13.3334 13.333 12.438 13.333 11.3334V10C13.333 9.63185 13.6315 9.33337 13.9997 9.33337C14.3679 9.33337 14.6663 9.63185 14.6663 10V11.3334C14.6663 13.174 13.1737 14.6667 11.333 14.6667H4.66634C2.82567 14.6667 1.33301 13.174 1.33301 11.3334V4.66671C1.33301 2.82604 2.82567 1.33337 4.66634 1.33337H5.99967C6.36786 1.33337 6.66634 1.63185 6.66634 2.00004ZM13.9997 2.66671H10.809C10.4408 2.66671 10.1423 2.36823 10.1423 2.00004C10.1423 1.63185 10.4408 1.33337 10.809 1.33337H13.9997V2.66671ZM14.6663 2.00004V5.19071C14.6663 5.5589 14.3679 5.85738 13.9997 5.85738C13.6315 5.85738 13.333 5.5589 13.333 5.19071V2.00004H14.6663ZM14.471 2.47137L9.60901 7.33337C9.3487 7.59368 8.92665 7.59368 8.66634 7.33337C8.40603 7.07306 8.40603 6.65102 8.66634 6.39071L13.5283 1.52871L14.471 2.47137ZM14.6663 2.00004H13.9997V1.33337C14.3679 1.33337 14.6663 1.63185 14.6663 2.00004Z" fill="#404040"/>
</g>
</svg>
